<svg width="70" height="70" viewBox="0 0 70 70" fill="none" xmlns="http://www.w3.org/2000/svg">
<path d="M52.9463 7.75761L35.4463 0.0973974C35.1488 -0.0324658 34.8106 -0.0324658 34.513 0.0973974L17.013 7.75761C16.588 7.94307 16.3132 8.36259 16.313 8.82626V27.1426C16.3193 31.2589 18.2974 35.123 21.633 37.5351L33.7278 46.2581C34.4748 46.7988 35.4845 46.7988 36.2315 46.2581L48.3263 37.5363C51.6619 35.1242 53.64 31.2601 53.6463 27.1438V8.82626C53.6461 8.36259 53.3713 7.94307 52.9463 7.75761ZM51.313 27.1438C51.3077 30.5106 49.6896 33.6711 46.9613 35.644L34.9797 44.2853L22.998 35.644C20.2697 33.6711 18.6517 30.5106 18.6463 27.1438V9.58924L34.9797 2.44003L51.313 9.58924V27.1438Z" fill="#ED683C"/>
<path d="M34.5131 5.19206L21.6797 10.8106C21.2548 10.9961 20.98 11.4156 20.9797 11.8793V27.1449C20.9833 29.7625 22.2415 32.2197 24.3631 33.7528L34.2972 40.9184C34.7048 41.2123 35.2547 41.2123 35.6622 40.9184L45.5964 33.7528C47.718 32.2197 48.9761 29.7625 48.9797 27.1449V11.8793C48.9795 11.4156 48.7047 10.9961 48.2797 10.8106L35.4464 5.19206C35.1488 5.0622 34.8106 5.0622 34.5131 5.19206ZM46.6464 12.6411V27.1449C46.6428 29.0128 45.745 30.7659 44.2314 31.8605L34.9797 38.5337L25.7281 31.8605C24.2145 30.7659 23.3166 29.0128 23.3131 27.1449V12.6411L34.9797 7.53469L46.6464 12.6411Z" fill="#ED683C"/>
<path d="M9.6455 38.731L7.122 32.8347C6.58535 31.6191 5.44095 30.7821 4.11986 30.639C2.79878 30.496 1.50172 31.0686 0.717276 32.1411C-0.0671665 33.2137 -0.219817 34.6232 0.316826 35.8388L4.889 45.8966C5.50583 47.2581 6.36393 48.4968 7.42183 49.5529L14.612 56.7441C14.2071 57.1733 13.9809 57.7407 13.9797 58.3308V67.664C13.9797 68.9526 15.0243 69.9973 16.313 69.9973H29.1463C30.435 69.9973 31.4797 68.9526 31.4797 67.664V58.3308C31.4797 57.0421 30.435 55.9974 29.1463 55.9974V53.8263C29.1821 51.0633 28.2806 48.3697 26.589 46.1847C25.5972 44.8803 24.2456 43.8945 22.7005 43.3486C20.2433 42.3162 17.9835 40.866 16.0213 39.0623C14.2 37.5623 11.6125 37.4278 9.6455 38.731ZM29.1463 67.664H16.313V58.3308H29.1463V67.664ZM24.7678 47.6419C26.1277 49.4136 26.8485 51.5931 26.813 53.8263V55.9974H17.1658L9.0715 47.9032C8.21182 47.0448 7.51424 46.0381 7.01233 44.9317L2.44016 34.874C2.24504 34.4447 2.28135 33.9457 2.53657 33.5492C2.79179 33.1527 3.23095 32.913 3.70249 32.9129C4.25742 32.9124 4.75892 33.2435 4.97649 33.754L7.58633 39.8405C8.27936 41.4643 9.27828 42.9397 10.5287 44.1862L15.858 49.5167C16.1509 49.82 16.5847 49.9416 16.9926 49.8348C17.4005 49.7281 17.719 49.4095 17.8258 49.0016C17.9326 48.5937 17.811 48.16 17.5077 47.867L12.1783 42.5366C11.6424 42.002 11.1606 41.4158 10.7398 40.7866C11.8602 39.9245 13.4276 39.9506 14.5187 40.8496C16.6996 42.8511 19.2202 44.4472 21.962 45.5629C23.0791 45.9691 24.054 46.6914 24.7678 47.6419Z" fill="#ED683C"/>
<path d="M25.6461 61.8327H24.4794C23.8351 61.8327 23.3127 62.355 23.3127 62.9994C23.3127 63.6437 23.8351 64.166 24.4794 64.166H25.6461C26.2904 64.166 26.8127 63.6437 26.8127 62.9994C26.8127 62.355 26.2904 61.8327 25.6461 61.8327Z" fill="#ED683C"/>
<path d="M65.0704 45.9003L69.6426 35.8426C70.2048 34.6229 70.0657 33.1948 69.2787 32.1065C68.4918 31.0181 67.1792 30.4386 65.8447 30.5903C64.5103 30.7419 63.3612 31.6013 62.8386 32.8384L60.3209 38.7125C58.3471 37.4158 55.7583 37.5577 53.9381 39.0625C51.9759 40.8662 49.7161 42.3164 47.2589 43.3488C45.7139 43.8947 44.3622 44.8805 43.3704 46.185C41.678 48.3708 40.7765 51.0658 40.8131 53.83V56.0012C39.5244 56.0012 38.4797 57.0458 38.4797 58.3345V67.6677C38.4797 68.9564 39.5244 70.001 40.8131 70.001H53.6464C54.9351 70.001 55.9798 68.9564 55.9798 67.6677V58.3345C55.9785 57.7444 55.7524 57.177 55.3474 56.7478L62.5376 49.5566C63.5955 48.5006 64.4536 47.2619 65.0704 45.9003ZM53.6464 67.6677H40.8131V58.3345H53.6464V67.6677ZM52.7936 56.0012H43.1464V53.83C43.1112 51.5973 43.8319 49.4182 45.1916 47.6468C45.9039 46.697 46.8766 45.9743 47.9916 45.5666C50.7339 44.4513 53.255 42.8551 55.4361 40.8534C56.5259 39.9475 58.0977 39.917 59.2219 40.7799C58.7999 41.4137 58.3157 42.0039 57.7764 42.5415L52.4471 47.8719C52.005 48.3297 52.0113 49.0574 52.4613 49.5074C52.9113 49.9574 53.639 49.9637 54.0968 49.5216L59.4261 44.1911C60.6765 42.9446 61.6754 41.4692 62.3684 39.8454L64.9783 33.7578C65.1964 33.2479 65.6977 32.9174 66.2523 32.9178C66.7238 32.9179 67.163 33.1576 67.4182 33.5541C67.6734 33.9506 67.7097 34.4496 67.5146 34.8789L62.9424 44.9366C62.4405 46.043 61.7429 47.0497 60.8833 47.9081L52.7936 56.0012Z" fill="#ED683C"/>
<path d="M45.4798 61.8327H44.3132C43.6688 61.8327 43.1465 62.355 43.1465 62.9994C43.1465 63.6437 43.6688 64.166 44.3132 64.166H45.4798C46.1241 64.166 46.6465 63.6437 46.6465 62.9994C46.6465 62.355 46.1241 61.8327 45.4798 61.8327Z" fill="#ED683C"/>
<path d="M28.6797 24.7332C28.1643 24.3466 27.433 24.4511 27.0464 24.9666C26.6598 25.482 26.7643 26.2133 27.2797 26.5999L31.9464 30.0998C32.1483 30.2512 32.394 30.3331 32.6464 30.3331C32.7124 30.3329 32.7784 30.3274 32.8436 30.3168C33.1595 30.2625 33.4393 30.0807 33.6171 29.8139L42.9504 15.8143C43.1817 15.4675 43.2105 15.0237 43.0258 14.6499C42.8412 14.2762 42.4711 14.0294 42.0551 14.0024C41.6392 13.9755 41.2404 14.1725 41.0091 14.5193L32.3594 27.4935L28.6797 24.7332Z" fill="#ED683C"/>
</svg>
