<svg width="62" height="82" viewBox="0 0 62 82" fill="none" xmlns="http://www.w3.org/2000/svg">
<path d="M59.9478 47.5102H58.9901V36.5766C58.9901 34.8457 58.3103 33.3131 57.2722 32.3819V30.8932C57.2722 28.7337 55.886 26.9769 54.1822 26.9769H53.467L56.2032 21.8884C57.1203 20.1828 56.7715 17.8494 55.4258 16.6869L36.8594 0.651239C36.2075 0.0880431 35.4218 -0.119809 34.6463 0.066656C33.8712 0.252804 33.1995 0.810296 32.7553 1.63663L16.7301 31.4397H12.2708L13.3466 17.6363C13.3588 17.4807 13.4385 17.3459 13.5498 17.2928C14.9359 16.6305 16.1371 15.3935 16.9321 13.8099C16.9948 13.6852 17.1129 13.6139 17.2351 13.6296L24.2295 14.5054C24.731 14.567 25.1771 14.1041 25.2266 13.4688C25.2761 12.8335 24.91 12.2678 24.4088 12.2051L17.4144 11.3293C16.6025 11.2285 15.8283 11.7027 15.3933 12.569C14.8088 13.7334 13.9255 14.6427 12.9064 15.1297C12.1393 15.4963 11.6125 16.3695 11.5315 17.409L10.438 31.4396H9.27513L10.9766 9.60819C11.0379 8.82241 11.5913 8.24511 12.212 8.32385L26.3463 10.0934C26.8475 10.1547 27.2939 9.69215 27.3434 9.05687C27.3929 8.42159 27.0268 7.85586 26.5255 7.79313L12.3913 6.02354C10.7708 5.82091 9.32163 7.32673 9.16151 9.38085L7.79001 26.9769H5.45438C3.75063 26.9769 2.36438 28.7337 2.36438 30.8932V31.9087C0.970501 32.722 0 34.5078 0 36.5766V75.9758C0 78.8084 1.81825 81.1128 4.05338 81.1128H54.9368C57.1718 81.1128 58.9901 78.8084 58.9901 75.9758V65.0423H59.9478C61.0783 65.0423 61.9979 63.8768 61.9979 62.4442V50.1085C61.9981 48.6757 61.0783 47.5102 59.9478 47.5102ZM54.1822 29.2887C54.8804 29.2885 55.4483 30.0084 55.4483 30.8933V31.4822C55.2805 31.4553 55.1102 31.4399 54.9368 31.4399H51.0674L52.224 29.2887H54.1822ZM34.2624 2.93824C34.4324 2.62219 34.6893 2.40895 34.9858 2.33766C35.0567 2.32071 35.1278 2.31215 35.1984 2.31215C35.423 2.31215 35.6425 2.39738 35.8323 2.56119L54.3987 18.5968C54.9134 19.0415 55.0469 19.9341 54.6962 20.5865L48.8604 31.4394H47.4599L50.321 26.1185C50.785 25.2555 50.8233 24.1573 50.4205 23.2523C49.8853 22.0498 49.6683 20.634 49.8095 19.2654C49.9145 18.2472 49.561 17.2532 48.887 16.6712L39.2623 8.35838C38.5882 7.77618 37.7289 7.72279 37.0197 8.21913C36.0665 8.88609 34.9474 9.14797 33.8687 8.95659C33.0687 8.81433 32.2573 9.27217 31.8002 10.1221L20.3378 31.4396H18.9373L34.2624 2.93824ZM34.664 22.5655C30.6927 22.5655 27.4326 26.4901 27.167 31.4396H22.5446L33.307 11.4239C33.3072 11.4239 33.3072 11.4239 33.3072 11.4239C33.3683 11.31 33.4697 11.2422 33.5738 11.2422C33.5877 11.2422 33.6015 11.2434 33.6154 11.2458C35.0827 11.5059 36.6045 11.1501 37.901 10.2428C38.003 10.1712 38.134 10.1815 38.235 10.2687L47.8599 18.5816C47.9607 18.6687 48.016 18.8196 48.001 18.9659C47.8089 20.8273 48.1042 22.7527 48.832 24.388C48.8904 24.5193 48.8833 24.6876 48.814 24.8167L45.253 31.4394H42.1614C41.8955 26.4901 38.6357 22.5655 34.664 22.5655ZM40.3325 31.4397H28.9956C29.2569 27.7661 31.6987 24.8772 34.664 24.8772C37.6295 24.877 40.0714 27.7661 40.3325 31.4397ZM4.18825 30.8932C4.18825 30.0082 4.75613 29.2883 5.45438 29.2883H7.60988L7.44226 31.4396H4.18825V30.8932ZM1.82388 36.5766C1.82388 35.0187 2.824 33.7511 4.05338 33.7511H54.9368C56.1662 33.7511 57.1662 35.0187 57.1662 36.5766V39.7837H1.82388V36.5766ZM57.1662 75.9758C57.1662 77.5337 56.1662 78.8012 54.9368 78.8012H4.05338C2.824 78.8012 1.82388 77.5337 1.82388 75.9758V72.7686H6.74163C7.24538 72.7686 7.65351 72.2512 7.65351 71.6129C7.65351 70.9746 7.24526 70.4572 6.74163 70.4572H1.82388V42.0953H57.1662V47.5102H48.4954H48.4953C45.7633 47.5102 43.3968 49.5285 42.2737 52.45C42.2699 52.4598 42.2657 52.4693 42.2618 52.4792C42.2523 52.504 42.244 52.5299 42.2348 52.5549C42.101 52.915 41.9848 53.2878 41.8902 53.6724C41.8899 53.6735 41.8897 53.6745 41.8894 53.6756C41.6875 54.4976 41.5787 55.371 41.5787 56.2763C41.5787 61.1099 44.6814 65.0423 48.4952 65.0423H48.4953H57.166V70.4572H12.5809C12.0771 70.4572 11.669 70.9746 11.669 71.6129C11.669 72.2512 12.0773 72.7686 12.5809 72.7686H57.1662V75.9758ZM60.1742 62.444C60.1742 62.6021 60.0727 62.7308 59.9478 62.7308H48.4955C46.5649 62.7308 44.8817 61.3621 44.0183 59.3503C43.979 59.2589 43.9415 59.1661 43.9057 59.0721C43.834 58.8841 43.7694 58.691 43.7123 58.4932C43.512 57.8016 43.4028 57.0548 43.4028 56.2763C43.4028 55.4978 43.5122 54.751 43.7123 54.0593C43.7695 53.8617 43.8342 53.6686 43.9057 53.4804C43.9415 53.3865 43.979 53.2936 44.0183 53.2022C44.8817 51.1904 46.5649 49.8218 48.4955 49.8218H59.9478C60.0725 49.8218 60.1742 49.9504 60.1742 50.1085V62.444Z" fill="#ED683C"/>
<path d="M48.7089 51.5823C46.6687 51.5823 45.0089 53.686 45.0089 56.2717C45.0089 58.8574 46.6687 60.9609 48.7089 60.9609C50.7492 60.9609 52.4089 58.8574 52.4089 56.2717C52.4089 53.686 50.7492 51.5823 48.7089 51.5823ZM48.7089 58.6493C47.6744 58.6493 46.8328 57.5827 46.8328 56.2717C46.8328 54.9607 47.6744 53.8939 48.7089 53.8939C49.7434 53.8939 50.5851 54.9605 50.5851 56.2717C50.5851 57.5828 49.7434 58.6493 48.7089 58.6493Z" fill="#ED683C"/>
</svg>
