<svg width="72" height="72" viewBox="0 0 72 72" fill="none" xmlns="http://www.w3.org/2000/svg">
<g clip-path="url(#clip0)">
<path d="M43.9648 43.5124C50.4711 40.8699 54.6879 34.5043 54.5834 27.4827C54.5834 17.8321 46.2458 9.98102 35.9975 9.98102C25.7493 9.98102 17.4117 17.8321 17.4117 27.4827C17.3071 34.5043 21.5238 40.8699 28.0302 43.5124L28.1743 43.5904L29.1583 45.2049C27.4016 46.2217 26.8019 48.47 27.8185 50.2265C27.9522 50.4574 28.1106 50.6732 28.2911 50.8699C26.9136 52.38 27.0209 54.7207 28.5308 56.0984C29.2168 56.7241 30.113 57.0692 31.0413 57.0651H40.9538C42.9977 57.0741 44.662 55.4243 44.6709 53.3804C44.675 52.4518 44.3299 51.5557 43.7042 50.8699C45.0763 49.3742 44.9759 47.0494 43.4802 45.6774C43.2835 45.497 43.0679 45.3386 42.8368 45.2049L43.8208 43.5904L43.9648 43.5124ZM40.9536 54.587H31.0412C30.3569 54.587 29.8021 54.0322 29.8021 53.348C29.8021 52.6637 30.3569 52.1089 31.0412 52.1089H40.9536C41.6379 52.1089 42.1927 52.6637 42.1927 53.348C42.1927 54.0322 41.6379 54.587 40.9536 54.587ZM40.9536 49.6308H31.0412C30.3569 49.6308 29.8021 49.076 29.8021 48.3918C29.8021 47.7075 30.3569 47.1527 31.0412 47.1527H40.9536C41.6379 47.1527 42.1927 47.7075 42.1927 48.3918C42.1927 49.076 41.6379 49.6308 40.9536 49.6308ZM42.8401 41.303L42.3446 41.5721C42.1529 41.6767 41.9919 41.8299 41.8781 42.0162L40.2579 44.6746H39.7146V35.2751L45.5468 29.4429L43.7948 27.6907L37.5995 33.886C37.3672 34.1183 37.2366 34.4333 37.2364 34.762V44.6744H34.7583V34.762C34.7582 34.4333 34.6276 34.1183 34.3953 33.886L28.2 27.6907L26.448 29.4427L32.2802 35.275V44.6744H31.7369L30.1167 42.016C30.0028 41.8297 29.8419 41.6765 29.6502 41.572L29.1547 41.3028C29.1149 41.2816 29.0742 41.2624 29.0325 41.2453C23.4306 38.9917 19.7958 33.5201 19.8896 27.4827C19.8896 19.199 27.1152 12.4591 35.9974 12.4591C44.8796 12.4591 52.1051 19.199 52.1051 27.4827C52.199 33.5201 48.5641 38.9917 42.9623 41.2453C42.9206 41.2625 42.8797 41.2817 42.8401 41.303Z" fill="#ED683C"/>
<path d="M10.5308 10.1117L9.42261 12.3281L16.8565 16.0451L17.9647 13.8286L10.5308 10.1117Z" fill="#ED683C"/>
<path d="M61.6187 10.5866L53.7344 13.2164L54.5184 15.5672L62.4028 12.9374L61.6187 10.5866Z" fill="#ED683C"/>
<path d="M12.4553 26.0898H5.021V28.568H12.4553V26.0898Z" fill="#ED683C"/>
<path d="M66.9739 26.0898H59.5396V28.568H66.9739V26.0898Z" fill="#ED683C"/>
<path d="M16.8567 41.0877L9.42285 44.8047L10.5311 47.0211L17.965 43.3042L16.8567 41.0877Z" fill="#ED683C"/>
<path d="M55.1365 41.0883L54.0283 43.3047L61.4622 47.0216L62.5704 44.8052L55.1365 41.0883Z" fill="#ED683C"/>
<path d="M37.2364 1.30762H34.7583V7.5029H37.2364V1.30762Z" fill="#ED683C"/>
<path d="M71.9299 59.5445V57.0664C55.7648 57.0664 38.5868 60.9741 38.4761 68.2179H33.5186C33.4078 60.9741 16.2299 57.0664 0.0646973 57.0664V59.5445C18.2167 59.5445 30.8919 64.1002 31.0344 68.2179H0.0646973V70.696H71.9299V68.2179H40.9602C41.1027 64.1002 53.7779 59.5445 71.9299 59.5445Z" fill="#ED683C"/>
<path d="M0.12986 63.2636L-0.000488281 65.7383L23.5457 66.9785L23.6761 64.5039L0.12986 63.2636Z" fill="#ED683C"/>
<path d="M71.8661 63.2617L48.3198 64.5043L48.4504 66.979L71.9966 65.7364L71.8661 63.2617Z" fill="#ED683C"/>
</g>
<defs>
<clipPath id="clip0">
<rect width="72" height="72" fill="white"/>
</clipPath>
</defs>
</svg>
