<svg width="50" height="50" viewBox="0 0 50 50" fill="none" xmlns="http://www.w3.org/2000/svg">
<g clip-path="url(#clip0)">
<path d="M20.2081 0C17.4493 0 15.205 2.24434 15.205 5.00314C15.205 7.76194 17.4494 10.0063 20.2081 10.0063C22.9669 10.0063 25.2112 7.76194 25.2112 5.00314C25.2112 2.24434 22.9669 0 20.2081 0ZM20.2081 8.54134C18.2571 8.54134 16.6699 6.95413 16.6699 5.00314C16.6699 3.05216 18.2572 1.46495 20.2081 1.46495C22.1591 1.46495 23.7463 3.05226 23.7463 5.00314C23.7463 6.95403 22.1591 8.54134 20.2081 8.54134Z" fill="#ED683C"/>
<path d="M38.9648 30.4963C38.676 30.2133 38.2122 30.2176 37.929 30.5064L31.781 36.7765L29.6099 34.5049C29.3304 34.2123 28.8667 34.2019 28.5743 34.4815C28.2819 34.7609 28.2713 35.2245 28.5508 35.5171L31.2448 38.3357C31.5305 38.6348 32.0075 38.6379 32.2973 38.3424L38.975 31.5322C39.2582 31.2432 39.2536 30.7795 38.9648 30.4963Z" fill="#ED683C"/>
<path d="M43.0064 35.3888C42.6099 35.3101 42.2241 35.5676 42.1453 35.9644C41.3054 40.1903 38.3235 43.801 34.3629 45.3877C33.9874 45.5381 33.805 45.9645 33.9554 46.3401C34.1058 46.7157 34.5323 46.898 34.9078 46.7476C39.4675 44.9209 42.6643 40.8685 43.582 36.25C43.661 35.8531 43.4031 35.4676 43.0064 35.3888Z" fill="#ED683C"/>
<path d="M41.749 24.101C39.7896 25.208 37.9415 25.2449 36.2556 24.2108C34.9153 23.3888 34.1642 22.1848 34.1343 22.1362C33.8875 21.7322 33.466 21.4839 32.9966 21.4613C31.6339 17.6459 29.3595 14.9957 27.6462 13.4179C26.5536 12.4116 25.1353 11.8575 23.6526 11.8575C22.9405 11.8575 17.4574 11.8575 16.7642 11.8575C15.1812 11.8575 13.6744 12.4524 12.5216 13.5324C10.1479 15.7562 6.16227 20.6144 6.13893 28.1642C6.13395 29.7473 7.39079 31.0698 8.9405 31.1125C10.5594 31.1599 11.9043 29.8607 11.9043 28.2309C11.9043 25.3975 12.7001 22.7302 14.2229 20.4103V47.4589C14.2229 48.8601 15.363 50.0002 16.7643 50.0002H18.3997C19.1068 50.0002 19.7474 49.7099 20.2085 49.2423C20.6697 49.7099 21.3102 50.0002 22.0173 50.0002H23.6528C25.054 50.0002 26.1941 48.8601 26.1941 47.4589V43.5974C27.5491 44.9587 29.1624 46.0327 30.945 46.7467C31.3208 46.8972 31.747 46.7145 31.8973 46.3392C32.0478 45.9637 31.8653 45.5374 31.4898 45.3869C26.774 43.4975 23.4567 38.8136 23.4567 33.4019V25.4179C26.4221 27.0602 29.2933 26.6597 31.6389 24.4708C32.177 23.9764 32.6155 23.4533 32.9119 22.9884C32.9165 22.9814 32.9225 22.9725 32.9265 22.9663C33.1369 23.2912 34.0157 24.5553 35.4901 25.4596C36.9727 26.3692 39.3699 27.0945 42.3965 25.4178V32.6884C42.3965 33.093 42.7244 33.4208 43.1289 33.4208C43.5334 33.4208 43.8613 33.093 43.8613 32.6884V25.3337C43.861 24.251 42.6934 23.5679 41.749 24.101ZM21.4962 13.3225L20.6192 14.3643C20.4044 14.6193 20.0124 14.6193 19.7976 14.3643L18.9204 13.3225H21.4962ZM26.1939 24.8934V20.5999C27.0377 21.9249 27.6425 23.3529 28.0005 24.8682C27.4134 24.997 26.8123 25.005 26.1939 24.8934ZM29.3773 24.3303C28.789 21.9795 27.661 19.8251 26.0163 17.9151C25.5734 17.4008 24.7287 17.7168 24.7287 18.393V24.4203C24.4131 24.2766 24.0174 24.0568 24.0066 24.0517C23.0759 23.6137 21.9911 24.2916 21.9911 25.3338V25.359V33.4021C21.9911 36.4683 22.9393 39.4007 24.7287 41.8755V47.459H24.729C24.729 48.0525 24.2462 48.5354 23.6527 48.5354H22.0172C21.4238 48.5354 20.9408 48.0527 20.9408 47.459V32.4063C20.9408 32.0017 20.6129 31.6738 20.2084 31.6738C19.8039 31.6738 19.476 32.0017 19.476 32.4063V47.459C19.476 48.0524 18.9932 48.5353 18.3996 48.5353H16.7642C16.1707 48.5353 15.6878 48.0526 15.6878 47.459V18.2491C15.6878 17.5753 14.8508 17.2604 14.4061 17.7645C11.8108 20.7055 10.4391 24.3249 10.4391 28.231C10.4391 29.0196 9.79519 29.6677 8.98074 29.6482C8.21902 29.6272 7.60124 28.9637 7.60378 28.1689C7.62546 21.1691 11.3217 16.664 13.5231 14.6016C14.4035 13.7768 15.5544 13.3225 16.7641 13.3225H17.0054L18.6769 15.3077C19.477 16.2582 20.9406 16.257 21.7397 15.3077L23.4111 13.3225H23.6524C24.7665 13.3225 25.8324 13.7391 26.6538 14.4954C28.2763 15.9898 30.4416 18.519 31.6943 22.1726C31.1365 23.0143 30.2858 23.8176 29.3773 24.3303Z" fill="#ED683C"/>
</g>
<defs>
<clipPath id="clip0">
<rect width="50" height="50" fill="white"/>
</clipPath>
</defs>
</svg>
