<svg width="50" height="50" viewBox="0 0 50 50" fill="none" xmlns="http://www.w3.org/2000/svg">
<g clip-path="url(#clip0)">
<path d="M30.5311 30.2156C35.0493 28.3806 37.9777 23.96 37.9051 19.0839C37.9051 12.3821 32.1151 6.92993 24.9983 6.92993C17.8814 6.92993 12.0914 12.3821 12.0914 19.0839C12.0188 23.96 14.947 28.3806 19.4654 30.2156L19.5654 30.2698L20.2487 31.391C19.0288 32.0971 18.6124 33.6584 19.3184 34.8782C19.4112 35.0385 19.5212 35.1884 19.6465 35.325C18.6899 36.3736 18.7645 37.9992 19.813 38.9559C20.2894 39.3904 20.9117 39.63 21.5564 39.6272H28.4401C29.8595 39.6335 31.0152 38.4878 31.0214 37.0684C31.0242 36.4236 30.7846 35.8012 30.3501 35.325C31.3029 34.2863 31.2332 32.6719 30.1945 31.7191C30.0579 31.5938 29.9082 31.4838 29.7478 31.391L30.4311 30.2698L30.5311 30.2156ZM28.44 37.9063H21.5563C21.0811 37.9063 20.6959 37.5211 20.6959 37.0459C20.6959 36.5707 21.0811 36.1854 21.5563 36.1854H28.44C28.9152 36.1854 29.3004 36.5707 29.3004 37.0459C29.3004 37.5211 28.9152 37.9063 28.44 37.9063ZM28.44 34.4645H21.5563C21.0811 34.4645 20.6959 34.0792 20.6959 33.6041C20.6959 33.1289 21.0811 32.7436 21.5563 32.7436H28.44C28.9152 32.7436 29.3004 33.1289 29.3004 33.6041C29.3004 34.0792 28.9152 34.4645 28.44 34.4645ZM29.75 28.6813L29.4059 28.8682C29.2728 28.9408 29.161 29.0472 29.082 29.1766L27.9568 31.0227H27.5795V24.4953L31.6297 20.4451L30.413 19.2283L26.1107 23.5306C25.9494 23.6919 25.8587 23.9107 25.8586 24.1389V31.0226H24.1377V24.1389C24.1376 23.9107 24.0469 23.6919 23.8856 23.5306L19.5833 19.2283L18.3666 20.445L22.4168 24.4952V31.0226H22.0395L20.9143 29.1765C20.8353 29.0471 20.7235 28.9407 20.5903 28.8681L20.2463 28.6812C20.2186 28.6664 20.1903 28.6531 20.1614 28.6413C16.2712 27.0762 13.747 23.2765 13.8122 19.0839C13.8122 13.3313 18.83 8.65084 24.9981 8.65084C31.1663 8.65084 36.1841 13.3313 36.1841 19.0839C36.2493 23.2765 33.725 27.0762 29.8349 28.6413C29.8059 28.6532 29.7775 28.6665 29.75 28.6813Z" fill="#ED683C"/>
<path d="M7.31317 7.02198L6.54358 8.56116L11.706 11.1424L12.4756 9.60318L7.31317 7.02198Z" fill="#ED683C"/>
<path d="M42.791 7.35344L37.3158 9.17969L37.8603 10.8121L43.3355 8.9859L42.791 7.35344Z" fill="#ED683C"/>
<path d="M8.64955 18.1158H3.48682V19.8368H8.64955V18.1158Z" fill="#ED683C"/>
<path d="M46.5095 18.1158H41.3468V19.8368H46.5095V18.1158Z" fill="#ED683C"/>
<path d="M11.7061 28.5316L6.5437 31.1128L7.31329 32.652L12.4757 30.0708L11.7061 28.5316Z" fill="#ED683C"/>
<path d="M38.2891 28.5338L37.5195 30.073L42.682 32.6542L43.4515 31.115L38.2891 28.5338Z" fill="#ED683C"/>
<path d="M25.8586 0.906738H24.1377V5.20902H25.8586V0.906738Z" fill="#ED683C"/>
<path d="M49.9515 41.3481V39.6272C38.7256 39.6272 26.7965 42.3409 26.7196 47.3713H23.2769C23.2 42.3409 11.2709 39.6272 0.0450439 39.6272V41.3481C12.6506 41.3481 21.4529 44.5118 21.5518 47.3713H0.0450439V49.0922H49.9515V47.3713H28.4447C28.5437 44.5118 37.3459 41.3481 49.9515 41.3481Z" fill="#ED683C"/>
<path d="M0.0901537 43.9323L-0.000366211 45.6508L16.3512 46.512L16.4417 44.7936L0.0901537 43.9323Z" fill="#ED683C"/>
<path d="M49.9071 43.9305L33.5555 44.7935L33.6462 46.512L49.9978 45.649L49.9071 43.9305Z" fill="#ED683C"/>
</g>
<defs>
<clipPath id="clip0">
<rect width="50" height="50" fill="white"/>
</clipPath>
</defs>
</svg>
