<svg width="50" height="50" viewBox="0 0 50 50" fill="none" xmlns="http://www.w3.org/2000/svg">
<path d="M6.37969 28.4034L9.92832 28.7452C10.3079 30.2537 10.9149 31.6956 11.7285 33.0214L9.46924 35.7496C9.36064 35.8807 9.30487 36.0476 9.31284 36.2177C9.3208 36.3877 9.39193 36.5487 9.5123 36.6691L13.3546 40.5112C13.475 40.6316 13.6359 40.7028 13.806 40.7108C13.976 40.7187 14.1429 40.663 14.274 40.5544L17.0068 38.2912C18.3333 39.101 19.7728 39.709 21.2782 40.0951L21.62 43.6318C21.6369 43.7996 21.7162 43.9549 21.8422 44.067C21.9682 44.1792 22.1317 44.2399 22.3004 44.2372H27.7477C27.9163 44.2399 28.0798 44.1792 28.2058 44.067C28.3318 43.9549 28.4111 43.7996 28.428 43.6318L28.7698 40.0893C30.2782 39.7109 31.7201 39.105 33.046 38.2924L35.7741 40.5532C35.9051 40.6619 36.072 40.7178 36.242 40.71C36.4121 40.7021 36.5731 40.6311 36.6936 40.5109L40.5358 36.6691C40.6562 36.5487 40.7272 36.3878 40.7352 36.2178C40.7432 36.0478 40.6874 35.8809 40.5789 35.7498L38.3162 33.0169C39.1261 31.6903 39.7341 30.2506 40.1202 28.745L43.6211 28.4032C43.7901 28.3867 43.9469 28.3079 44.061 28.1822C44.1751 28.0565 44.2383 27.8928 44.2383 27.723V22.2757C44.2383 22.1058 44.175 21.9419 44.0607 21.8161C43.9465 21.6903 43.7895 21.6115 43.6203 21.5952L40.0717 21.2534C39.6921 19.7449 39.0851 18.303 38.2715 16.9773L40.5308 14.249C40.6389 14.1185 40.6946 13.9525 40.6872 13.7832C40.6798 13.6139 40.6098 13.4533 40.4907 13.3327L36.6971 9.49044C36.5769 9.36878 36.4156 9.29654 36.2448 9.28799C36.0741 9.27944 35.9063 9.33519 35.7746 9.44425L33.0418 11.7074C31.7153 10.8976 30.2758 10.2897 28.7704 9.90353L28.4286 6.36691C28.4117 6.19909 28.3324 6.04374 28.2064 5.93161C28.0804 5.81948 27.9169 5.75875 27.7482 5.76144H22.301C22.1323 5.75875 21.9688 5.81948 21.8428 5.93161C21.7168 6.04374 21.6375 6.19909 21.6206 6.36691L21.2788 9.90939C19.7705 10.2878 18.3287 10.8937 17.0028 11.7063L14.274 9.44581C14.143 9.33712 13.9762 9.28121 13.8061 9.28903C13.6361 9.29685 13.4751 9.36784 13.3546 9.4881L9.5123 13.33C9.39199 13.4504 9.32089 13.6113 9.31293 13.7813C9.30496 13.9513 9.3607 14.1181 9.46924 14.2492L11.7324 16.9817C10.9226 18.3082 10.3147 19.7477 9.92852 21.253L6.37969 21.5948C6.21046 21.6112 6.05339 21.69 5.93913 21.8158C5.82486 21.9417 5.76161 22.1057 5.76172 22.2757V27.723C5.76171 27.8929 5.82501 28.0568 5.93926 28.1826C6.05351 28.3084 6.21053 28.3871 6.37969 28.4034ZM7.12891 22.8966L10.5478 22.5671C10.692 22.5532 10.8282 22.4938 10.9365 22.3974C11.0448 22.301 11.1197 22.1728 11.1503 22.0311C11.5251 20.3452 12.2019 18.7412 13.1479 17.2963C13.2266 17.1742 13.2645 17.0302 13.2559 16.8852C13.2473 16.7401 13.1927 16.6016 13.1 16.4897L10.9191 13.8567L13.8813 10.8945L16.5146 13.0755C16.6279 13.1693 16.7684 13.2241 16.9153 13.2317C17.0621 13.2393 17.2075 13.1994 17.3299 13.1178C18.7681 12.1661 20.3709 11.4905 22.0564 11.1256C22.1973 11.0976 22.3254 11.0251 22.4219 10.9188C22.5184 10.8125 22.5782 10.678 22.5925 10.5352L22.9216 7.12823H27.1271L27.4565 10.5349C27.4706 10.6785 27.5303 10.8138 27.6267 10.9211C27.7231 11.0284 27.8513 11.1021 27.9926 11.1314C29.6782 11.5051 31.2823 12.1808 32.7273 13.1259C32.8496 13.2045 32.9937 13.242 33.1387 13.2331C33.2838 13.2243 33.4222 13.1694 33.534 13.0765L36.1643 10.8978L39.0834 13.8539L36.9 16.4906C36.8062 16.6039 36.7515 16.7444 36.7439 16.8912C36.7363 17.0381 36.7762 17.1834 36.8578 17.3058C37.8095 18.744 38.4851 20.3468 38.85 22.0323C38.8806 22.174 38.9555 22.3023 39.0638 22.3986C39.1721 22.4949 39.3083 22.5544 39.4525 22.5683L42.8711 22.8966V27.1028L39.5001 27.4317C39.356 27.4457 39.22 27.5052 39.1119 27.6015C39.0037 27.6978 38.9289 27.826 38.8983 27.9676C38.5235 29.6534 37.8467 31.2575 36.9008 32.7024C36.822 32.8244 36.7842 32.9685 36.7928 33.1135C36.8014 33.2586 36.856 33.3971 36.9486 33.509L39.1295 36.1419L36.1674 39.1041L33.534 36.9233C33.4207 36.8295 33.2802 36.7747 33.1334 36.7671C32.9865 36.7594 32.8411 36.7994 32.7188 36.881C31.2806 37.8327 29.6777 38.5083 27.9922 38.8732C27.8514 38.9011 27.7233 38.9736 27.6267 39.0799C27.5302 39.1862 27.4704 39.3207 27.4562 39.4636L27.1271 42.8704H22.9216L22.5921 39.4638C22.578 39.3202 22.5184 39.1849 22.4219 39.0776C22.3255 38.9703 22.1973 38.8966 22.0561 38.8673C20.3704 38.4936 18.7663 37.8178 17.3213 36.8728C17.199 36.7942 17.0549 36.7566 16.9099 36.7655C16.7648 36.7744 16.6264 36.8293 16.5146 36.9222L13.8813 39.1037L10.9191 36.1419L13.1 33.5087C13.1938 33.3954 13.2485 33.255 13.2561 33.1081C13.2637 32.9613 13.2238 32.8159 13.1422 32.6936C12.1905 31.2554 11.5149 29.6525 11.15 27.967C11.1194 27.8253 11.0445 27.6971 10.9362 27.6007C10.8279 27.5044 10.6917 27.445 10.5475 27.4311L7.12891 27.1021V22.8966Z" fill="#ED683C"/>
<path d="M25.0243 36.2886C27.257 36.2886 29.4396 35.6265 31.2961 34.386C33.1526 33.1456 34.5995 31.3824 35.4539 29.3196C36.3083 27.2568 36.5319 24.987 36.0963 22.7971C35.6607 20.6073 34.5855 18.5958 33.0067 17.017C31.4279 15.4382 29.4164 14.363 27.2265 13.9274C25.0367 13.4918 22.7668 13.7154 20.704 14.5699C18.6412 15.4243 16.8781 16.8712 15.6377 18.7277C14.3972 20.5842 13.7351 22.7668 13.7351 24.9996C13.7385 27.9926 14.929 30.862 17.0454 32.9784C19.1618 35.0948 22.0312 36.2852 25.0243 36.2886ZM25.0243 15.0777C26.9866 15.0777 28.9049 15.6596 30.5365 16.7499C32.1682 17.8401 33.4399 19.3897 34.1908 21.2027C34.9417 23.0157 35.1382 25.0106 34.7554 26.9353C34.3725 28.8599 33.4275 30.6278 32.0399 32.0154C30.6523 33.403 28.8844 34.348 26.9598 34.7308C25.0351 35.1136 23.0402 34.9171 21.2272 34.1662C19.4142 33.4152 17.8646 32.1435 16.7744 30.5119C15.6842 28.8802 15.1023 26.9619 15.1023 24.9996C15.1053 22.369 16.1516 19.8471 18.0117 17.9871C19.8718 16.127 22.3937 15.0807 25.0243 15.0777Z" fill="#ED683C"/>
<path d="M23.2648 28.2476C23.3925 28.3723 23.5639 28.4421 23.7423 28.4421C23.9208 28.4421 24.0922 28.3723 24.2199 28.2476L29.8718 22.7296C29.9369 22.667 29.9889 22.5923 30.0248 22.5095C30.0608 22.4268 30.0801 22.3378 30.0815 22.2476C30.0829 22.1574 30.0665 22.0678 30.0331 21.984C29.9998 21.9002 29.9501 21.8238 29.8871 21.7593C29.8241 21.6947 29.7489 21.6433 29.666 21.6079C29.583 21.5726 29.4938 21.554 29.4036 21.5532C29.3134 21.5525 29.2239 21.5696 29.1404 21.6036C29.0568 21.6376 28.9808 21.6878 28.9167 21.7513L23.7423 26.8032L21.0828 24.2065C21.0185 24.1438 20.9426 24.0944 20.8592 24.061C20.7759 24.0276 20.6868 24.011 20.597 24.0121C20.5073 24.0132 20.4186 24.0319 20.3361 24.0673C20.2535 24.1026 20.1788 24.1539 20.1161 24.2181C20.0534 24.2824 20.0039 24.3583 19.9706 24.4417C19.9372 24.525 19.9206 24.6141 19.9217 24.7039C19.9228 24.7937 19.9415 24.8823 19.9769 24.9649C20.0122 25.0474 20.0635 25.1221 20.1277 25.1848L23.2648 28.2476Z" fill="#ED683C"/>
</svg>
