<svg width="50" height="50" viewBox="0 0 50 50" fill="none" xmlns="http://www.w3.org/2000/svg">
<g clip-path="url(#clip0)">
<path d="M48.538 24.1641C48.0776 23.7007 47.5297 23.3332 46.9263 23.083C46.3228 22.8328 45.6757 22.7047 45.0224 22.7063H38.0783L38.0818 16.6282C38.077 14.6907 37.4906 12.7993 36.3987 11.1989C35.3067 9.59843 33.7594 8.36268 31.9572 7.6516C30.7099 7.16019 29.1384 6.76918 27.7998 7.0559C28.0903 5.98409 28.0131 4.84579 27.5803 3.82309C27.1475 2.80039 26.3842 1.95239 25.4126 1.41474C24.4409 0.877098 23.317 0.680877 22.2206 0.857472C21.1242 1.03407 20.1188 1.57327 19.365 2.38882C18.6113 3.20438 18.1529 4.24916 18.0631 5.35603C17.9734 6.4629 18.2574 7.56789 18.8699 8.49424C19.4823 9.4206 20.3878 10.1148 21.4413 10.4657C22.4949 10.8167 23.6358 10.8042 24.6814 10.4301L21.8689 15.2157L15.6373 18.2891C15.227 18.4946 14.866 18.7862 14.5789 19.1441C14.2918 19.5019 14.0853 19.9175 13.9736 20.3625H12.5193C11.9621 20.3628 11.4111 20.4799 10.902 20.7063C10.3928 20.9327 9.93682 21.2634 9.56343 21.677C9.30235 20.9811 8.88764 20.3531 8.35018 19.8397C7.81273 19.3263 7.16637 18.9408 6.45926 18.7118C5.75215 18.4829 5.00249 18.4164 4.26613 18.5174C3.52976 18.6183 2.82566 18.8841 2.20626 19.2949C1.58686 19.7057 1.06811 20.251 0.688667 20.8901C0.30922 21.5292 0.0788429 22.2457 0.0146938 22.9861C-0.0494552 23.7266 0.0542764 24.472 0.318164 25.1669C0.582051 25.8617 0.999293 26.488 1.53882 26.9993H0.679443C0.498143 26.9993 0.324268 27.0713 0.19607 27.1995C0.0678709 27.3277 -0.00415039 27.5015 -0.00415039 27.6828V33.5188C-0.00415039 33.7001 0.0678709 33.874 0.19607 34.0022C0.324268 34.1304 0.498143 34.2024 0.679443 34.2024H3.41382V48.4875C3.41382 48.6688 3.48584 48.8427 3.61404 48.9709C3.74224 49.0991 3.91611 49.1711 4.09741 49.1711H8.78491C8.96621 49.1711 9.14009 49.0991 9.26828 48.9709C9.39648 48.8427 9.4685 48.6688 9.4685 48.4875V40.4692C9.51694 40.4719 9.56577 40.477 9.61382 40.477C10.1506 40.477 10.6758 40.3213 11.1258 40.0287C11.5758 39.7361 11.9312 39.3192 12.149 38.8286L14.1619 34.2043H23.8392L22.831 35.5356C22.2794 36.1012 21.9701 36.8596 21.9689 37.6496V46.0481C21.9616 46.8463 22.2624 47.6166 22.8086 48.1987C23.3549 48.7808 24.1046 49.1298 24.9017 49.1731H24.9939C25.7971 49.1726 26.5672 48.8534 27.1352 48.2856C27.7033 47.7177 28.0228 46.9477 28.0236 46.1446V38.909L30.2025 36.75L29.8361 38.6332C29.776 38.9526 29.7657 39.2794 29.8056 39.602L30.9267 46.5086C31.0159 47.2426 31.3706 47.9187 31.9237 48.4093C32.4769 48.8999 33.1904 49.1713 33.9298 49.1723C34.0525 49.1727 34.1751 49.1658 34.297 49.1516C35.0935 49.0537 35.8187 48.6439 36.3135 48.0121C36.8083 47.3803 37.0323 46.578 36.9365 45.7813C36.9365 45.7719 36.9337 45.7625 36.9322 45.7528L35.8736 39.3075L36.8677 34.2024H40.5232V48.4875C40.5232 48.6688 40.5952 48.8427 40.7234 48.9709C40.8516 49.0991 41.0255 49.1711 41.2068 49.1711H45.8943C46.0756 49.1711 46.2495 49.0991 46.3777 48.9709C46.5059 48.8427 46.5779 48.6688 46.5779 48.4875V34.2024H49.3123C49.4936 34.2024 49.6674 34.1304 49.7956 34.0022C49.9238 33.874 49.9958 33.7001 49.9958 33.5188V27.6828C49.9975 27.0291 49.8695 26.3815 49.6193 25.7775C49.3691 25.1735 49.0016 24.6251 48.538 24.1641ZM23.0291 9.35199C22.3213 9.35207 21.6295 9.14228 21.041 8.74916C20.4526 8.35603 19.9939 7.79724 19.723 7.14342C19.4521 6.48961 19.3812 5.77016 19.5192 5.07605C19.6573 4.38193 19.998 3.74434 20.4984 3.24389C20.9988 2.74344 21.6364 2.40262 22.3305 2.26452C23.0246 2.12643 23.744 2.19726 24.3979 2.46807C25.0517 2.73888 25.6105 3.1975 26.0037 3.78592C26.3969 4.37435 26.6068 5.06616 26.6068 5.77386C26.6058 6.72246 26.2285 7.63191 25.5578 8.3027C24.8871 8.9735 23.9776 9.35085 23.0291 9.35199ZM16.2435 19.5145L22.6568 16.3504C22.7763 16.2914 22.876 16.1986 22.9435 16.0836L27.006 9.16957C27.1375 8.94735 27.3189 8.75879 27.5358 8.61878C27.7528 8.47878 27.9994 8.39119 28.256 8.36293C28.316 8.35452 28.3766 8.35086 28.4373 8.35199C30.6318 8.35406 32.736 9.22674 34.2878 10.7785C35.8396 12.3303 36.7124 14.4344 36.7146 16.6289L36.7111 22.7075H36.6529C35.2053 21.4176 33.3888 20.6156 31.4603 20.4149L31.8244 18.027C31.9723 17.0463 31.7944 16.0442 31.3179 15.1744C30.8415 14.3046 30.0929 13.6151 29.1869 13.2118C29.0335 13.1436 28.8604 13.1343 28.7006 13.1856C28.5408 13.2369 28.4055 13.3452 28.3205 13.4899L25.4486 18.3727C25.2846 18.6516 25.0423 18.8761 24.7517 19.0184L17.6228 22.534C17.4236 22.6322 17.2067 22.6894 16.985 22.7022C16.7634 22.715 16.5413 22.6832 16.3322 22.6087C16.123 22.5342 15.9309 22.4184 15.7672 22.2683C15.6036 22.1182 15.4717 21.9368 15.3794 21.7348C15.2819 21.5231 15.2361 21.2912 15.2458 21.0582C15.2566 20.7347 15.3551 20.4201 15.5308 20.1482C15.7066 19.8762 15.9529 19.6572 16.2435 19.5145ZM30.4724 17.8196L30.0849 20.3625H25.1177L25.3568 20.2453C25.8874 19.9845 26.3296 19.5733 26.6283 19.0629L29.1603 14.7563C29.6423 15.0943 30.0205 15.56 30.2523 16.1012C30.4841 16.6424 30.5603 17.2375 30.4724 17.8196ZM1.36304 23.4196C1.36304 22.7119 1.5729 22.0201 1.96609 21.4316C2.35927 20.8432 2.91812 20.3846 3.57196 20.1138C4.2258 19.843 4.94526 19.7721 5.63936 19.9102C6.33346 20.0483 6.97102 20.3891 7.47142 20.8896C7.97181 21.39 8.31256 22.0276 8.45058 22.7217C8.5886 23.4159 8.51768 24.1353 8.24681 24.7891C7.97593 25.4429 7.51725 26.0017 6.92878 26.3949C6.34031 26.788 5.64847 26.9978 4.94077 26.9977C3.99215 26.9967 3.08268 26.6193 2.41194 25.9485C1.74119 25.2777 1.36397 24.3682 1.36304 23.4196ZM8.5189 26.8235V26.9993H8.34311C8.40327 26.9427 8.462 26.8842 8.51929 26.8235H8.5189ZM4.08413 32.8352H1.36304V28.3664H8.51929V32.8336L4.08413 32.8352ZM8.10132 34.3332L7.13335 36.5543C6.94701 36.9715 6.86265 37.4271 6.88724 37.8833C6.91183 38.3396 7.04466 38.7834 7.27476 39.1782C7.48123 39.5223 7.7642 39.8142 8.10171 40.0313V47.8047H4.7814V34.2024H8.10171L8.10132 34.3332ZM13.7146 26.9993C13.5333 26.9993 13.3594 27.0713 13.2312 27.1995C13.103 27.3277 13.031 27.5015 13.031 27.6828V33.3762L10.899 38.2793C10.77 38.5764 10.5411 38.8189 10.2519 38.9647C9.96279 39.1106 9.63171 39.1506 9.31616 39.0778C9.11316 39.0273 8.92399 38.9321 8.76243 38.7992C8.60087 38.6663 8.47099 38.4991 8.38226 38.3096C8.29353 38.1202 8.24818 37.9133 8.24952 37.7042C8.25086 37.495 8.29884 37.2887 8.38999 37.1004L9.83101 33.7918V33.7891C9.84912 33.7474 9.86299 33.7039 9.87241 33.6594C9.88198 33.6135 9.88683 33.5668 9.88686 33.52V24.3625C9.88759 23.6645 10.1652 22.9952 10.6588 22.5017C11.1524 22.0081 11.8216 21.7304 12.5197 21.7297H13.9439C13.9878 21.9268 14.0524 22.1188 14.1365 22.3024C14.3034 22.6717 14.5434 23.0035 14.842 23.2775C15.1406 23.5516 15.4917 23.7623 15.874 23.8969C16.2558 24.0315 16.6606 24.0888 17.0648 24.0654C17.469 24.042 17.8645 23.9384 18.2283 23.7606L22.347 21.7293H30.5037C30.5427 21.7293 30.5853 21.7293 30.6599 21.7328C32.6195 21.7711 34.4945 22.5388 35.9181 23.886C36.0448 24.0059 36.2125 24.0728 36.3869 24.0731H45.0232C45.8611 24.0745 46.6725 24.3671 47.3185 24.9008C47.9645 25.4345 48.4048 26.1762 48.5642 26.9989L13.7146 26.9993ZM30.6646 34.3649L26.8572 38.1387C26.793 38.2022 26.742 38.2778 26.7072 38.3612C26.6724 38.4445 26.6545 38.5339 26.6544 38.6243V46.1438C26.654 46.3662 26.609 46.5864 26.5221 46.7911C26.4351 46.9959 26.308 47.1811 26.1483 47.3359C25.9885 47.4907 25.7993 47.6119 25.5919 47.6924C25.3845 47.7729 25.1631 47.8109 24.9408 47.8043C24.4984 47.774 24.0846 47.5745 23.7855 47.2472C23.4863 46.9198 23.3247 46.4899 23.3341 46.0465V37.6481C23.3346 37.429 23.3786 37.2121 23.4635 37.0101C23.5484 36.808 23.6725 36.6249 23.8287 36.4711C23.8524 36.4477 23.8745 36.4227 23.8947 36.3961L25.5564 34.202H30.6978L30.6646 34.3649ZM34.1322 47.793C33.9129 47.8208 33.6904 47.8044 33.4776 47.7447C33.2648 47.685 33.0662 47.5833 32.8934 47.4455C32.7206 47.3078 32.5772 47.1368 32.4716 46.9426C32.366 46.7485 32.3004 46.5352 32.2787 46.3153L31.1599 39.4145C31.1397 39.2403 31.146 39.0641 31.1787 38.8918L31.9275 35.0395L32.774 34.2024H35.4759L34.5083 39.1653C34.4927 39.2449 34.4915 39.3266 34.5048 39.4067L35.5806 45.9579C35.6296 46.3926 35.5051 46.8292 35.2343 47.1727C34.9634 47.5163 34.5679 47.7392 34.1337 47.793H34.1322ZM45.2091 47.8039H41.8888V34.2024H45.2091V47.8039ZM48.6271 32.8352H14.3982V28.3664H48.6287L48.6271 32.8352Z" fill="#ED683C"/>
</g>
<defs>
<clipPath id="clip0">
<rect width="50" height="50" fill="white"/>
</clipPath>
</defs>
</svg>
