<svg width="42" height="50" viewBox="0 0 42 50" fill="none" xmlns="http://www.w3.org/2000/svg">
<path d="M40.3855 5.95361C40.0345 5.71465 39.625 5.58838 39.2014 5.58838C38.5034 5.58838 37.8523 5.93262 37.4598 6.50918L37.1108 7.02178L36.4718 6.60908C36.5852 6.24004 36.6097 5.84687 36.5386 5.45615C36.4217 4.81416 36.0616 4.25615 35.525 3.88496C35.1146 3.60107 34.6345 3.45098 34.1367 3.45098C33.5363 3.45098 32.9645 3.67139 32.5234 4.05869L31.9111 3.66328L32.1645 3.29131C32.8179 2.33184 32.5691 1.01953 31.6093 0.36543C31.2581 0.126367 30.8487 0 30.4253 0C29.7273 0 29.0761 0.344238 28.6836 0.920801L27.1904 3.11396C26.5367 4.07344 26.7856 5.38584 27.7454 6.03994C28.0964 6.27891 28.5059 6.40518 28.9295 6.40518C29.6276 6.40518 30.2787 6.06094 30.6712 5.48428L31.0201 4.97207L31.5611 5.32148L24.6384 15.3282H17.3551L10.4344 5.32432L10.9799 4.97207L11.3287 5.48428C11.7213 6.06084 12.3725 6.40508 13.0705 6.40518H13.0706C13.4942 6.40518 13.9036 6.27881 14.2548 6.03975C15.2145 5.38594 15.4634 4.07344 14.8098 3.11416L13.3162 0.920801C12.9237 0.344238 12.2726 0 11.5745 0C11.1509 0 10.7414 0.126367 10.3902 0.36543C9.4307 1.01914 9.18167 2.33164 9.83519 3.29102L10.0886 3.66309L9.47269 4.06084C9.03128 3.67207 8.45824 3.45068 7.85648 3.45068C7.35853 3.45068 6.87855 3.60088 6.4682 3.88477C5.57191 4.50478 5.21937 5.62129 5.52318 6.61191L4.8889 7.02158L4.53988 6.50898C4.1474 5.93242 3.49622 5.58818 2.79827 5.58818C2.37464 5.58818 1.96517 5.71455 1.614 5.95361C0.654426 6.60732 0.405403 7.91982 1.05892 8.8793L2.55238 11.0726C2.94495 11.6491 3.59613 11.9934 4.29417 11.9934C4.71771 11.9934 5.12699 11.8672 5.47835 11.628C6.43802 10.9742 6.68695 9.66172 6.03333 8.70244L5.77992 8.33037L6.32816 7.97627L15.1211 20.6866C15.2096 20.8145 15.3088 20.9324 15.4184 21.04V49.2084C15.4184 49.6456 15.7727 49.9999 16.2099 49.9999H25.7833C26.2205 49.9999 26.5748 49.6456 26.5748 49.2084V21.0401C26.6844 20.9325 26.7838 20.8144 26.8722 20.6865L35.6671 7.97353L36.2197 8.33047L35.9663 8.70244C35.3126 9.66191 35.5616 10.9743 36.5214 11.6284C36.8724 11.8674 37.2819 11.9936 37.7054 11.9936C38.4035 11.9936 39.0546 11.6494 39.4472 11.0729L40.9407 8.87949C41.5942 7.92002 41.3452 6.60752 40.3855 5.95361ZM30.856 2.4001L29.3625 4.59336C29.2653 4.73652 29.1032 4.82207 28.9294 4.82207C28.8249 4.82207 28.7236 4.79062 28.6365 4.73144C28.3982 4.56914 28.3364 4.24336 28.4987 4.00498L29.992 1.81162C30.0896 1.66855 30.2514 1.58301 30.4252 1.58301C30.5298 1.58301 30.6312 1.61445 30.7182 1.67363C30.9565 1.83594 31.0183 2.16172 30.856 2.4001ZM11.2811 1.67383C11.3685 1.61445 11.4699 1.58301 11.5744 1.58301C11.7482 1.58301 11.9102 1.66846 12.0076 1.81162L13.501 4.00518C13.6632 4.24336 13.6014 4.56914 13.3633 4.73125C13.276 4.79062 13.1747 4.82207 13.0702 4.82207C12.8963 4.82207 12.7343 4.73652 12.6369 4.59336L11.1437 2.4C10.9814 2.16172 11.0432 1.83594 11.2811 1.67383ZM4.58743 10.3196C4.50023 10.379 4.39886 10.4104 4.29437 10.4104C4.12054 10.4104 3.95843 10.3249 3.86097 10.1816L2.36751 7.98828C2.20531 7.7501 2.26712 7.42422 2.50521 7.26211C2.59251 7.20273 2.69388 7.17129 2.79837 7.17129C2.9721 7.17129 3.13411 7.25674 3.23148 7.3999L4.72503 9.59355C4.88734 9.83174 4.82542 10.1575 4.58743 10.3196ZM34.8427 6.3831L25.5705 19.7857C25.5087 19.8751 25.4322 19.9507 25.343 20.0104C25.1236 20.1573 24.9919 20.404 24.9919 20.6681V48.4171H21.6174V33.9658C21.6174 33.5286 21.2631 33.1743 20.8259 33.1743C20.3887 33.1743 20.0344 33.5286 20.0344 33.9658V48.417H17.0015V20.6682C17.0015 20.4041 16.8699 20.1575 16.6506 20.0107C16.5613 19.9509 16.4846 19.8752 16.423 19.7861L7.15101 6.3831C6.88128 5.99316 6.97904 5.45644 7.36898 5.18662C7.51351 5.08672 7.68216 5.03379 7.85667 5.03379C8.13968 5.03379 8.40452 5.17236 8.56517 5.40459L16.2894 16.5701C16.4371 16.7838 16.6805 16.9113 16.9403 16.9113H25.0534C25.3132 16.9113 25.5566 16.7839 25.7042 16.5701L33.4285 5.40469C33.5891 5.17256 33.8539 5.03389 34.1369 5.03389C34.3115 5.03389 34.4801 5.08672 34.6247 5.18672C35.0147 5.45644 35.1124 5.99316 34.8427 6.3831ZM39.6324 7.98838L38.1389 10.1818C38.0413 10.3249 37.8794 10.4104 37.7055 10.4104C37.601 10.4104 37.4996 10.3791 37.4126 10.3199C37.1743 10.1576 37.1125 9.83183 37.2748 9.59346L38.7683 7.4C38.8659 7.25693 39.0277 7.17139 39.2015 7.17139C39.3061 7.17139 39.4075 7.20283 39.4945 7.26201C39.7327 7.42441 39.7946 7.7502 39.6324 7.98838Z" fill="#ED683C"/>
<path d="M20.8259 13.9043C23.6193 13.9043 25.8917 11.6317 25.8917 8.83837C25.8917 6.04501 23.6192 3.77264 20.8259 3.77264C18.0325 3.77264 15.76 6.0451 15.76 8.83837C15.76 11.6317 18.0325 13.9043 20.8259 13.9043ZM20.8259 5.35555C22.7463 5.35555 24.3087 6.91796 24.3087 8.83837C24.3087 10.7589 22.7463 12.3214 20.8259 12.3214C18.9054 12.3214 17.3429 10.7589 17.3429 8.83837C17.3429 6.91796 18.9054 5.35555 20.8259 5.35555Z" fill="#ED683C"/>
</svg>
