<svg width="486" height="497" viewBox="0 0 486 497" fill="none" xmlns="http://www.w3.org/2000/svg">
<g clip-path="url(#clip0)">
<path d="M342.276 146.061C340.892 144.677 340.892 142.7 342.276 141.315C343.66 139.931 345.637 139.931 347.021 141.315C348.405 142.7 348.405 144.677 347.021 146.061C345.835 147.247 343.66 147.247 342.276 146.061ZM329.028 132.813C327.644 131.429 327.644 129.452 329.028 128.068C330.412 126.684 332.389 126.684 333.773 128.068C335.158 129.452 335.158 131.429 333.773 132.813C332.587 134 330.412 134 329.028 132.813ZM315.781 119.566C314.397 118.182 314.397 116.204 315.781 114.82C317.165 113.436 319.142 113.436 320.526 114.82C321.91 116.204 321.91 118.182 320.526 119.566C319.34 120.752 317.165 120.752 315.781 119.566ZM302.533 106.318C301.149 104.934 301.149 102.957 302.533 101.573C303.917 100.189 305.894 100.189 307.278 101.573C308.663 102.957 308.663 104.934 307.278 106.318C306.092 107.505 303.917 107.505 302.533 106.318ZM289.286 92.8731C287.901 91.489 287.901 89.5117 289.286 88.1277C290.67 86.7436 292.647 86.7436 294.031 88.1277C295.415 89.5117 295.415 91.489 294.031 92.8731C292.647 94.2571 290.67 94.2571 289.286 92.8731ZM276.038 79.6255C274.654 78.2415 274.654 76.2642 276.038 74.8802C277.422 73.4961 279.399 73.4961 280.783 74.8802C282.167 76.2642 282.167 78.2415 280.783 79.6255C279.399 81.0096 277.422 81.0096 276.038 79.6255ZM355.523 132.813C354.139 131.429 354.139 129.452 355.523 128.068C356.907 126.684 358.884 126.684 360.268 128.068C361.653 129.452 361.653 131.429 360.268 132.813C359.082 134.197 356.907 134.197 355.523 132.813ZM342.276 119.566C340.892 118.182 340.892 116.204 342.276 114.82C343.66 113.436 345.637 113.436 347.021 114.82C348.405 116.204 348.405 118.182 347.021 119.566C345.637 120.95 343.66 120.95 342.276 119.566ZM329.028 106.318C327.644 104.934 327.644 102.957 329.028 101.573C330.412 100.189 332.389 100.189 333.773 101.573C335.158 102.957 335.158 104.934 333.773 106.318C332.389 107.702 330.412 107.702 329.028 106.318ZM315.781 93.0708C314.397 91.6867 314.397 89.7095 315.781 88.3254C317.165 86.9413 319.142 86.9413 320.526 88.3254C321.91 89.7095 321.91 91.6867 320.526 93.0708C319.142 94.2571 316.967 94.2571 315.781 93.0708ZM302.533 79.8233C301.149 78.4392 301.149 76.462 302.533 75.0779C303.917 73.6938 305.894 73.6938 307.278 75.0779C308.663 76.462 308.663 78.4392 307.278 79.8233C305.894 81.0096 303.719 81.0096 302.533 79.8233ZM289.286 66.5757C287.901 65.1917 287.901 63.2144 289.286 61.8304C290.67 60.4463 292.647 60.4463 294.031 61.8304C295.415 63.2144 295.415 65.1917 294.031 66.5757C292.647 67.9598 290.472 67.7621 289.286 66.5757ZM368.771 119.566C367.387 118.182 367.387 116.204 368.771 114.82C370.155 113.436 372.132 113.436 373.516 114.82C374.9 116.204 374.9 118.182 373.516 119.566C372.132 120.95 369.957 120.95 368.771 119.566ZM355.523 106.318C354.139 104.934 354.139 102.957 355.523 101.573C356.907 100.189 358.884 100.189 360.268 101.573C361.653 102.957 361.653 104.934 360.268 106.318C358.884 107.702 356.709 107.702 355.523 106.318ZM342.276 93.0708C340.892 91.6867 340.892 89.7095 342.276 88.3254C343.66 86.9413 345.637 86.9413 347.021 88.3254C348.405 89.7095 348.405 91.6867 347.021 93.0708C345.637 94.4548 343.462 94.4548 342.276 93.0708ZM328.83 79.8233C327.446 78.4392 327.446 76.462 328.83 75.0779C330.214 73.6938 332.192 73.6938 333.576 75.0779C334.96 76.462 334.96 78.4392 333.576 79.8233C332.389 81.2073 330.214 81.2073 328.83 79.8233ZM315.583 66.5757C314.199 65.1917 314.199 63.2144 315.583 61.8304C316.967 60.4463 318.944 60.4463 320.328 61.8304C321.712 63.2144 321.712 65.1917 320.328 66.5757C319.142 67.9598 316.967 67.9598 315.583 66.5757ZM302.335 53.3282C300.951 51.9442 300.951 49.9669 302.335 48.5829C303.719 47.1988 305.697 47.1988 307.081 48.5829C308.465 49.9669 308.465 51.9442 307.081 53.3282C305.894 54.7123 303.719 54.7123 302.335 53.3282ZM381.82 106.516C380.436 105.132 380.436 103.155 381.82 101.771C383.204 100.387 385.182 100.387 386.566 101.771C387.95 103.155 387.95 105.132 386.566 106.516C385.379 107.702 383.204 107.702 381.82 106.516ZM368.573 93.2685C367.189 91.8844 367.189 89.9072 368.573 88.5231C369.957 87.1391 371.934 87.1391 373.318 88.5231C374.702 89.9072 374.702 91.8844 373.318 93.2685C372.132 94.4548 369.957 94.4548 368.573 93.2685ZM355.325 80.021C353.941 78.6369 353.941 76.6597 355.325 75.2756C356.709 73.8915 358.687 73.8915 360.071 75.2756C361.455 76.6597 361.455 78.6369 360.071 80.021C358.884 81.2073 356.709 81.2073 355.325 80.021ZM342.078 66.5757C340.694 65.1917 340.694 63.2144 342.078 61.8304C343.462 60.4463 345.439 60.4463 346.823 61.8304C348.207 63.2144 348.207 65.1917 346.823 66.5757C345.637 67.9598 343.462 67.9598 342.078 66.5757ZM328.83 53.3282C327.446 51.9442 327.446 49.9669 328.83 48.5829C330.214 47.1988 332.192 47.1988 333.576 48.5829C334.96 49.9669 334.96 51.9442 333.576 53.3282C332.192 54.7123 330.214 54.7123 328.83 53.3282ZM315.583 40.0807C314.199 38.6967 314.199 36.7194 315.583 35.3353C316.967 33.9513 318.944 33.9513 320.328 35.3353C321.712 36.7194 321.712 38.6967 320.328 40.0807C318.944 41.4648 316.967 41.4648 315.583 40.0807ZM395.068 93.2685C393.684 91.8844 393.684 89.9072 395.068 88.5231C396.452 87.1391 398.429 87.1391 399.813 88.5231C401.197 89.9072 401.197 91.8844 399.813 93.2685C398.627 94.6526 396.452 94.6526 395.068 93.2685ZM381.82 80.021C380.436 78.6369 380.436 76.6597 381.82 75.2756C383.204 73.8915 385.182 73.8915 386.566 75.2756C387.95 76.6597 387.95 78.6369 386.566 80.021C385.182 81.4051 383.204 81.4051 381.82 80.021ZM368.573 66.7735C367.189 65.3894 367.189 63.4122 368.573 62.0281C369.957 60.644 371.934 60.644 373.318 62.0281C374.702 63.4122 374.702 65.3894 373.318 66.7735C371.934 68.1575 369.957 68.1575 368.573 66.7735ZM355.325 53.526C353.941 52.1419 353.941 50.1647 355.325 48.7806C356.709 47.3965 358.687 47.3965 360.071 48.7806C361.455 50.1647 361.455 52.1419 360.071 53.526C358.687 54.7123 356.512 54.7123 355.325 53.526ZM342.078 40.2784C340.694 38.8944 340.694 36.9171 342.078 35.5331C343.462 34.149 345.439 34.149 346.823 35.5331C348.207 36.9171 348.207 38.8944 346.823 40.2784C345.439 41.4648 343.264 41.4648 342.078 40.2784ZM328.83 27.0309C327.446 25.6469 327.446 23.6696 328.83 22.2856C330.214 20.9015 332.192 20.9015 333.576 22.2856C334.96 23.6696 334.96 25.6469 333.576 27.0309C332.192 28.2173 330.017 28.2173 328.83 27.0309ZM408.315 80.021C406.931 78.6369 406.931 76.6597 408.315 75.2756C409.7 73.8915 411.677 73.8915 413.061 75.2756C414.445 76.6597 414.445 78.6369 413.061 80.021C411.677 81.4051 409.502 81.4051 408.315 80.021ZM395.068 66.7735C393.684 65.3894 393.684 63.4122 395.068 62.0281C396.452 60.644 398.429 60.644 399.813 62.0281C401.197 63.4122 401.197 65.3894 399.813 66.7735C398.429 68.1575 396.254 68.1575 395.068 66.7735ZM381.82 53.526C380.436 52.1419 380.436 50.1647 381.82 48.7806C383.204 47.3965 385.182 47.3965 386.566 48.7806C387.95 50.1647 387.95 52.1419 386.566 53.526C385.182 54.91 383.007 54.91 381.82 53.526ZM368.573 40.2784C367.189 38.8944 367.189 36.9171 368.573 35.5331C369.957 34.149 371.934 34.149 373.318 35.5331C374.702 36.9171 374.702 38.8944 373.318 40.2784C371.934 41.6625 369.759 41.6625 368.573 40.2784ZM355.128 27.0309C353.744 25.6469 353.744 23.6696 355.128 22.2856C356.512 20.9015 358.489 20.9015 359.873 22.2856C361.257 23.6696 361.257 25.6469 359.873 27.0309C358.687 28.415 356.512 28.415 355.128 27.0309ZM341.88 13.7834C340.496 12.3994 340.496 10.4221 341.88 9.03805C343.264 7.65398 345.241 7.65398 346.626 9.03805C348.01 10.4221 348.01 12.3994 346.626 13.7834C345.439 15.1675 343.264 15.1675 341.88 13.7834Z" fill="#ED683C"/>
</g>
<path d="M472.946 277.563C468.143 186.161 361.434 78.2112 348.462 65.6923C338.922 56.4865 280.914 -12.1512 156.615 16.2656C35.3814 43.9818 -59.8072 331.264 75.2548 468.572C81.49 474.91 91.1875 476.204 98.6398 471.354C134.427 448.065 175.335 404.291 256.381 426.767C347.133 451.934 478.642 385.955 472.946 277.563Z" fill="url(#paint0_linear)"/>
<defs>
<linearGradient id="paint0_linear" x1="243.644" y1="53.7957" x2="224.38" y2="427.486" gradientUnits="userSpaceOnUse">
<stop stop-color="#E6653A"/>
<stop offset="1" stop-color="#FF8B02"/>
</linearGradient>
<clipPath id="clip0">
<rect width="139" height="139" fill="white" transform="translate(254 16)"/>
</clipPath>
</defs>
</svg>
