<?xml version="1.0" encoding="utf-8"?>
<!-- Generator: Adobe Illustrator 23.0.3, SVG Export Plug-In . SVG Version: 6.00 Build 0)  -->
<svg version="1.1" id="Слой_1" xmlns="http://www.w3.org/2000/svg" xmlns:xlink="http://www.w3.org/1999/xlink" x="0px" y="0px"
	 viewBox="0 0 336.5 288.8" style="enable-background:new 0 0 336.5 288.8;" xml:space="preserve">
<style type="text/css">
	.st0{fill:#ED683C;}
	.st1{fill:url(#SVGID_1_);}
</style>
<path class="st0" d="M72.5,106.5c-0.8-1-0.7-2.3,0.3-3c1-0.8,2.2-0.6,3,0.4c0.8,1,0.7,2.3-0.3,3C74.7,107.5,73.3,107.3,72.5,106.5z
	 M64.8,96.8c-0.8-1-0.7-2.3,0.3-3c1-0.8,2.2-0.6,3,0.4c0.8,1,0.7,2.3-0.3,3C67,97.9,65.6,97.7,64.8,96.8z M57.1,87.1
	c-0.8-1-0.7-2.3,0.3-3c1-0.8,2.2-0.6,3,0.4c0.8,1,0.7,2.3-0.3,3C59.3,88.2,57.9,88,57.1,87.1z M49.5,77.5c-0.8-1-0.7-2.3,0.3-3
	c1-0.8,2.2-0.6,3,0.4c0.8,1,0.7,2.3-0.3,3C51.6,78.5,50.3,78.4,49.5,77.5z M41.8,67.7c-0.8-1-0.7-2.3,0.3-3c1-0.8,2.2-0.6,3,0.4
	c0.8,1,0.7,2.3-0.3,3C43.8,68.9,42.6,68.7,41.8,67.7z M34.1,58c-0.8-1-0.7-2.3,0.3-3c1-0.8,2.2-0.6,3,0.4s0.7,2.3-0.3,3
	C36.2,59.2,34.9,59,34.1,58z M81.7,99.2c-0.8-1-0.7-2.3,0.3-3c1-0.8,2.2-0.6,3,0.4c0.8,1,0.7,2.3-0.3,3
	C83.9,100.4,82.5,100.2,81.7,99.2z M74,89.5c-0.8-1-0.7-2.3,0.3-3c1-0.8,2.2-0.6,3,0.4c0.8,1,0.7,2.3-0.3,3
	C76,90.7,74.8,90.5,74,89.5z M66.3,79.8c-0.8-1-0.7-2.3,0.3-3c1-0.8,2.2-0.6,3,0.4c0.8,1,0.7,2.3-0.3,3C68.4,81,67.1,80.8,66.3,79.8
	z M58.6,70.2c-0.8-1-0.7-2.3,0.3-3c1-0.8,2.2-0.6,3,0.4c0.8,1,0.7,2.3-0.3,3C60.7,71.2,59.3,71,58.6,70.2z M50.9,60.5
	c-0.8-1-0.7-2.3,0.3-3c1-0.8,2.2-0.6,3,0.4c0.8,1,0.7,2.3-0.3,3C53,61.6,51.6,61.4,50.9,60.5z M43.2,50.8c-0.8-1-0.7-2.3,0.3-3
	c1-0.8,2.2-0.6,3,0.4c0.8,1,0.7,2.3-0.3,3C45.3,52,43.9,51.7,43.2,50.8z M90.8,91.9c-0.8-1-0.7-2.3,0.3-3c1-0.8,2.2-0.6,3,0.4
	c0.8,1,0.7,2.3-0.3,3C92.9,93,91.5,92.9,90.8,91.9z M83.2,82.2c-0.8-1-0.7-2.3,0.3-3c1-0.8,2.2-0.6,3,0.4c0.8,1,0.7,2.3-0.3,3
	C85.2,83.4,83.8,83.2,83.2,82.2z M75.5,72.5c-0.8-1-0.7-2.3,0.3-3c1-0.8,2.2-0.6,3,0.4c0.8,1,0.7,2.3-0.3,3
	C77.5,73.7,76.1,73.5,75.5,72.5z M67.7,62.8c-0.8-1-0.7-2.3,0.3-3c1-0.8,2.2-0.6,3,0.4c0.8,1,0.7,2.3-0.3,3
	C69.8,64.1,68.5,63.9,67.7,62.8z M60,53.2c-0.8-1-0.7-2.3,0.3-3c1-0.8,2.2-0.6,3,0.4c0.8,1,0.7,2.3-0.3,3
	C62.2,54.4,60.8,54.2,60,53.2z M52.3,43.5c-0.8-1-0.7-2.3,0.3-3c1-0.8,2.2-0.6,3,0.4c0.8,1,0.7,2.3-0.3,3
	C54.5,44.7,53.1,44.5,52.3,43.5z M99.9,84.7c-0.8-1-0.7-2.3,0.3-3c1-0.8,2.2-0.6,3,0.4c0.8,1,0.7,2.3-0.3,3
	C102.1,85.7,100.7,85.6,99.9,84.7z M92.2,75c-0.8-1-0.7-2.3,0.3-3c1-0.8,2.2-0.6,3,0.4c0.8,1,0.7,2.3-0.3,3
	C94.4,76.1,93,75.9,92.2,75z M84.5,65.3c-0.8-1-0.7-2.3,0.3-3c1-0.8,2.2-0.6,3,0.4c0.8,1,0.7,2.3-0.3,3
	C86.7,66.4,85.3,66.2,84.5,65.3z M76.8,55.5c-0.8-1-0.7-2.3,0.3-3c1-0.8,2.2-0.6,3,0.4c0.8,1,0.7,2.3-0.3,3
	C79,56.8,77.6,56.6,76.8,55.5z M69.1,45.9c-0.8-1-0.7-2.3,0.3-3c1-0.8,2.2-0.6,3,0.4c0.8,1,0.7,2.3-0.3,3
	C71.2,47.1,69.9,46.9,69.1,45.9z M61.5,36.2c-0.8-1-0.7-2.3,0.3-3c1-0.8,2.2-0.6,3,0.4c0.8,1,0.7,2.3-0.3,3
	C63.5,37.4,62.3,37.2,61.5,36.2z M109,77.4c-0.8-1-0.7-2.3,0.3-3c1-0.8,2.2-0.6,3,0.4c0.8,1,0.7,2.3-0.3,3
	C111.2,78.6,109.8,78.4,109,77.4z M101.3,67.7c-0.8-1-0.7-2.3,0.3-3c1-0.8,2.2-0.6,3,0.4c0.8,1,0.7,2.3-0.3,3
	C103.4,68.9,102.1,68.7,101.3,67.7z M93.7,58c-0.8-1-0.7-2.3,0.3-3c1-0.8,2.2-0.6,3,0.4c0.8,1,0.7,2.3-0.3,3
	C95.7,59.2,94.5,59,93.7,58z M86,48.4c-0.8-1-0.7-2.3,0.3-3c1-0.8,2.2-0.6,3,0.4c0.8,1,0.7,2.3-0.3,3C88,49.4,86.7,49.2,86,48.4z
	 M78.3,38.7c-0.8-1-0.7-2.3,0.3-3c1-0.8,2.2-0.6,3,0.4c0.8,1,0.7,2.3-0.3,3C80.4,39.8,79,39.6,78.3,38.7z M70.6,29
	c-0.8-1-0.7-2.3,0.3-3c1-0.8,2.2-0.6,3,0.4c0.8,1,0.7,2.3-0.3,3C72.7,30.1,71.3,29.9,70.6,29z M118.2,70.1c-0.8-1-0.7-2.3,0.3-3
	c1-0.8,2.2-0.6,3,0.4c0.8,1,0.7,2.3-0.3,3C120.3,71.2,118.9,71.1,118.2,70.1z M110.5,60.4c-0.8-1-0.7-2.3,0.3-3c1-0.8,2.2-0.6,3,0.4
	c0.8,1,0.7,2.3-0.3,3C112.6,61.6,111.2,61.4,110.5,60.4z M102.8,50.7c-0.8-1-0.7-2.3,0.3-3c1-0.8,2.2-0.6,3,0.4c0.8,1,0.7,2.3-0.3,3
	S103.5,51.7,102.8,50.7z M95.1,41.1c-0.8-1-0.7-2.3,0.3-3c1-0.8,2.2-0.6,3,0.4c0.8,1,0.7,2.3-0.3,3C97.2,42.3,95.8,42.1,95.1,41.1z
	 M87.3,31.4c-0.8-1-0.7-2.3,0.3-3c1-0.8,2.2-0.6,3,0.4c0.8,1,0.7,2.3-0.3,3C89.5,32.6,88.1,32.4,87.3,31.4z M79.6,21.7
	c-0.8-1-0.7-2.3,0.3-3c1-0.8,2.2-0.6,3,0.4c0.8,1,0.7,2.3-0.3,3C81.8,22.9,80.4,22.7,79.6,21.7z"/>
<linearGradient id="SVGID_1_" gradientUnits="userSpaceOnUse" x1="472.5815" y1="-164.8111" x2="129.6116" y2="73.3319" gradientTransform="matrix(0.6885 0 0 -0.6885 -38.2835 101.6836)">
	<stop  offset="0" style="stop-color:#E6653A"/>
	<stop  offset="1" style="stop-color:#FF8B02"/>
</linearGradient>
<path class="st1" d="M62.1,266.2c60.6,33.8,148.7,29.8,213.1-12.4c1.7-1.1,3.1-2.5,4.2-4.2l29.6-44.7
	c22.6-30.9,44.6-124.4,8.2-172.2c-35.6-46.7-112.3-43.6-174.6,10.1c-2.9,2.5-6.5,3.9-10.3,3.7c-25.5-1.2-52.3-8.5-99.5,34
	C-18.2,126.3-10.7,225.6,62.1,266.2z"/>
</svg>
