<svg width="551" height="564" viewBox="0 0 551 564" fill="none" xmlns="http://www.w3.org/2000/svg">
<path d="M148.838 244.206C147.837 242.947 147.975 241.369 149.169 240.418C150.362 239.467 151.93 239.686 152.931 240.945C153.932 242.204 153.794 243.782 152.6 244.733C151.577 245.549 149.853 245.307 148.838 244.206ZM139.259 232.158C138.258 230.899 138.396 229.321 139.59 228.37C140.783 227.418 142.351 227.638 143.352 228.897C144.352 230.156 144.215 231.734 143.021 232.685C141.998 233.501 140.274 233.259 139.259 232.158ZM129.68 220.11C128.679 218.851 128.817 217.273 130.011 216.321C131.204 215.37 132.772 215.59 133.773 216.849C134.773 218.108 134.636 219.686 133.442 220.637C132.419 221.452 130.695 221.211 129.68 220.11ZM120.101 208.062C119.1 206.803 119.238 205.224 120.432 204.273C121.625 203.322 123.193 203.542 124.194 204.801C125.194 206.059 125.057 207.638 123.863 208.589C122.84 209.404 121.116 209.163 120.101 208.062ZM110.536 195.856C109.535 194.597 109.673 193.018 110.866 192.067C112.06 191.116 113.627 191.336 114.628 192.595C115.629 193.853 115.491 195.432 114.298 196.383C113.104 197.334 111.536 197.114 110.536 195.856ZM100.957 183.808C99.9558 182.549 100.094 180.97 101.287 180.019C102.481 179.068 104.048 179.288 105.049 180.547C106.05 181.805 105.912 183.384 104.719 184.335C103.525 185.286 101.957 185.066 100.957 183.808ZM160.263 235.102C159.262 233.844 159.4 232.265 160.594 231.314C161.788 230.363 163.355 230.583 164.356 231.841C165.357 233.1 165.219 234.679 164.025 235.63C162.988 236.603 161.264 236.361 160.263 235.102ZM150.684 223.054C149.683 221.796 149.821 220.217 151.015 219.266C152.208 218.315 153.776 218.534 154.777 219.793C155.778 221.052 155.64 222.631 154.446 223.582C153.252 224.533 151.685 224.313 150.684 223.054ZM141.105 211.006C140.104 209.747 140.242 208.169 141.436 207.218C142.629 206.267 144.197 206.486 145.198 207.745C146.198 209.004 146.061 210.582 144.867 211.534C143.673 212.485 142.106 212.265 141.105 211.006ZM131.526 198.958C130.525 197.699 130.663 196.121 131.857 195.17C133.05 194.219 134.618 194.438 135.619 195.697C136.619 196.956 136.482 198.534 135.288 199.485C134.108 200.279 132.384 200.037 131.526 198.958ZM121.947 186.91C120.946 185.651 121.084 184.073 122.278 183.122C123.471 182.17 125.039 182.39 126.039 183.649C127.04 184.908 126.903 186.486 125.709 187.437C124.529 188.231 122.805 187.989 121.947 186.91ZM112.368 174.862C111.367 173.603 111.505 172.025 112.698 171.073C113.892 170.122 115.46 170.342 116.46 171.601C117.461 172.86 117.323 174.438 116.13 175.389C114.936 176.34 113.226 175.941 112.368 174.862ZM171.688 225.999C170.687 224.74 170.825 223.161 172.019 222.21C173.213 221.259 174.78 221.479 175.781 222.738C176.782 223.996 176.644 225.575 175.45 226.526C174.257 227.477 172.532 227.236 171.688 225.999ZM162.109 213.951C161.108 212.692 161.246 211.113 162.44 210.162C163.634 209.211 165.201 209.431 166.202 210.69C167.203 211.948 167.065 213.527 165.871 214.478C164.677 215.429 162.953 215.187 162.109 213.951ZM152.53 201.903C151.529 200.644 151.667 199.065 152.861 198.114C154.054 197.163 155.622 197.383 156.623 198.642C157.624 199.9 157.486 201.479 156.292 202.43C155.098 203.381 153.374 203.139 152.53 201.903ZM142.794 189.832C141.794 188.574 141.931 186.995 143.125 186.044C144.319 185.093 145.886 185.313 146.887 186.571C147.888 187.83 147.75 189.409 146.556 190.36C145.519 191.333 143.795 191.091 142.794 189.832ZM133.215 177.784C132.214 176.526 132.352 174.947 133.546 173.996C134.74 173.045 136.307 173.265 137.308 174.523C138.309 175.782 138.171 177.361 136.977 178.312C135.94 179.285 134.216 179.043 133.215 177.784ZM123.636 165.736C122.635 164.477 122.773 162.899 123.967 161.948C125.16 160.997 126.728 161.216 127.729 162.475C128.73 163.734 128.592 165.312 127.398 166.264C126.361 167.237 124.637 166.995 123.636 165.736ZM182.943 217.031C181.942 215.772 182.08 214.194 183.273 213.243C184.467 212.291 186.035 212.511 187.035 213.77C188.036 215.029 187.898 216.607 186.705 217.558C185.682 218.374 183.957 218.132 182.943 217.031ZM173.364 204.983C172.363 203.724 172.501 202.146 173.694 201.194C174.888 200.243 176.456 200.463 177.456 201.722C178.457 202.981 178.319 204.559 177.126 205.51C176.103 206.325 174.378 206.084 173.364 204.983ZM163.785 192.935C162.784 191.676 162.922 190.097 164.115 189.146C165.309 188.195 166.876 188.415 167.877 189.674C168.878 190.932 168.74 192.511 167.547 193.462C166.523 194.277 164.799 194.036 163.785 192.935ZM154.219 180.729C153.219 179.47 153.356 177.892 154.55 176.94C155.744 175.989 157.311 176.209 158.312 177.468C159.313 178.727 159.175 180.305 157.981 181.256C156.944 182.229 155.22 181.988 154.219 180.729ZM144.64 168.681C143.64 167.422 143.777 165.843 144.971 164.892C146.165 163.941 147.732 164.161 148.733 165.42C149.734 166.678 149.596 168.257 148.402 169.208C147.209 170.159 145.641 169.939 144.64 168.681ZM135.061 156.633C134.06 155.374 134.198 153.795 135.392 152.844C136.586 151.893 138.153 152.113 139.154 153.372C140.155 154.63 140.017 156.209 138.823 157.16C137.63 158.111 136.062 157.891 135.061 156.633ZM194.368 207.927C193.367 206.669 193.505 205.09 194.699 204.139C195.892 203.188 197.46 203.408 198.46 204.666C199.461 205.925 199.323 207.504 198.13 208.455C197.093 209.428 195.369 209.186 194.368 207.927ZM184.789 195.879C183.788 194.62 183.926 193.042 185.119 192.091C186.313 191.14 187.881 191.359 188.881 192.618C189.882 193.877 189.744 195.455 188.551 196.407C187.357 197.358 185.79 197.138 184.789 195.879ZM175.21 183.831C174.209 182.572 174.347 180.994 175.54 180.043C176.734 179.092 178.302 179.311 179.302 180.57C180.303 181.829 180.165 183.407 178.972 184.358C177.778 185.31 176.211 185.09 175.21 183.831ZM165.631 171.783C164.63 170.524 164.768 168.946 165.961 167.995C167.155 167.043 168.722 167.263 169.723 168.522C170.724 169.781 170.586 171.359 169.393 172.31C168.213 173.104 166.488 172.862 165.631 171.783ZM156.052 159.735C155.051 158.476 155.189 156.898 156.382 155.947C157.576 154.995 159.143 155.215 160.144 156.474C161.145 157.733 161.007 159.311 159.814 160.262C158.634 161.056 156.909 160.814 156.052 159.735ZM146.473 147.687C145.472 146.428 145.609 144.85 146.803 143.898C147.997 142.947 149.564 143.167 150.565 144.426C151.566 145.685 151.428 147.263 150.234 148.214C149.055 149.007 147.33 148.766 146.473 147.687ZM205.793 198.824C204.792 197.565 204.93 195.986 206.124 195.035C207.317 194.084 208.885 194.304 209.886 195.563C210.886 196.821 210.749 198.4 209.555 199.351C208.361 200.302 206.637 200.06 205.793 198.824ZM196.214 186.776C195.213 185.517 195.351 183.938 196.544 182.987C197.738 182.036 199.306 182.256 200.306 183.515C201.307 184.773 201.169 186.352 199.976 187.303C198.782 188.254 197.058 188.012 196.214 186.776ZM186.635 174.727C185.634 173.469 185.772 171.89 186.965 170.939C188.159 169.988 189.727 170.208 190.727 171.466C191.728 172.725 191.59 174.304 190.397 175.255C189.203 176.206 187.479 175.964 186.635 174.727ZM177.056 162.679C176.055 161.421 176.193 159.842 177.386 158.891C178.58 157.94 180.147 158.16 181.148 159.418C182.149 160.677 182.011 162.256 180.818 163.207C179.624 164.158 177.9 163.916 177.056 162.679ZM167.32 150.609C166.319 149.351 166.457 147.772 167.651 146.821C168.844 145.87 170.412 146.09 171.412 147.348C172.413 148.607 172.276 150.186 171.082 151.137C170.045 152.11 168.321 151.868 167.32 150.609ZM157.741 138.561C156.74 137.302 156.878 135.724 158.071 134.773C159.265 133.822 160.833 134.041 161.833 135.3C162.834 136.559 162.696 138.137 161.503 139.089C160.466 140.062 158.742 139.82 157.741 138.561Z" fill="#ED683C"/>
<path d="M135.862 443.304C211.246 485.31 320.757 480.453 401.024 428.187C403.436 426.616 405.475 424.54 407.064 422.139L443.566 366.976C471.785 328.445 499.224 211.937 453.774 152.337C409.546 94.3417 314.574 97.9459 237.046 164.103C232.881 167.658 227.617 169.778 222.149 169.481C190.663 167.774 157.47 159.63 99.2697 211.937C35.8139 268.968 45.1077 392.734 135.862 443.304Z" fill="url(#paint0_linear)"/>
<defs>
<linearGradient id="paint0_linear" x1="408.311" y1="391.234" x2="113.956" y2="186.847" gradientUnits="userSpaceOnUse">
<stop stop-color="#E6653A"/>
<stop offset="1" stop-color="#FF8B02"/>
</linearGradient>
</defs>
</svg>
