<svg width="693" height="709" viewBox="0 0 693 709" fill="none" xmlns="http://www.w3.org/2000/svg">
<path d="M187.134 306.977C185.875 305.395 186.049 303.41 187.549 302.214C189.05 301.018 191.021 301.294 192.279 302.877C193.538 304.46 193.364 306.444 191.864 307.64C190.577 308.665 188.409 308.361 187.134 306.977ZM175.09 291.829C173.832 290.246 174.005 288.262 175.506 287.066C177.007 285.87 178.977 286.146 180.236 287.729C181.494 289.312 181.321 291.296 179.82 292.492C178.534 293.517 176.366 293.213 175.09 291.829ZM163.046 276.681C161.788 275.098 161.961 273.114 163.462 271.918C164.963 270.722 166.934 270.998 168.192 272.581C169.45 274.164 169.277 276.148 167.776 277.344C166.49 278.369 164.322 278.065 163.046 276.681ZM151.003 261.533C149.744 259.95 149.917 257.966 151.418 256.77C152.919 255.574 154.89 255.85 156.148 257.433C157.406 259.016 157.233 261 155.732 262.196C154.446 263.221 152.278 262.917 151.003 261.533ZM138.976 246.186C137.718 244.604 137.891 242.619 139.392 241.423C140.893 240.227 142.863 240.504 144.122 242.086C145.38 243.669 145.207 245.654 143.706 246.849C142.205 248.045 140.234 247.769 138.976 246.186ZM126.932 231.038C125.674 229.456 125.847 227.471 127.348 226.275C128.849 225.079 130.82 225.356 132.078 226.938C133.336 228.521 133.163 230.506 131.662 231.701C130.161 232.897 128.191 232.621 126.932 231.038ZM201.498 295.531C200.24 293.949 200.413 291.964 201.914 290.768C203.415 289.572 205.386 289.848 206.644 291.431C207.902 293.014 207.729 294.998 206.228 296.194C204.925 297.418 202.757 297.114 201.498 295.531ZM189.455 280.383C188.196 278.8 188.37 276.816 189.87 275.62C191.371 274.424 193.342 274.7 194.6 276.283C195.859 277.866 195.685 279.85 194.185 281.046C192.684 282.242 190.713 281.966 189.455 280.383ZM177.411 265.235C176.153 263.652 176.326 261.668 177.827 260.472C179.327 259.276 181.298 259.552 182.557 261.135C183.815 262.718 183.642 264.702 182.141 265.898C180.64 267.094 178.669 266.818 177.411 265.235ZM165.367 250.087C164.109 248.504 164.282 246.52 165.783 245.324C167.284 244.128 169.255 244.404 170.513 245.987C171.771 247.57 171.598 249.554 170.097 250.75C168.614 251.747 166.446 251.444 165.367 250.087ZM153.324 234.939C152.065 233.356 152.238 231.372 153.739 230.176C155.24 228.98 157.211 229.256 158.469 230.839C159.727 232.422 159.554 234.406 158.053 235.602C156.57 236.599 154.402 236.295 153.324 234.939ZM141.28 219.791C140.021 218.208 140.195 216.224 141.695 215.028C143.196 213.832 145.167 214.108 146.425 215.691C147.684 217.273 147.51 219.258 146.01 220.454C144.509 221.65 142.358 221.147 141.28 219.791ZM215.863 284.085C214.605 282.503 214.778 280.518 216.279 279.322C217.78 278.126 219.75 278.402 221.009 279.985C222.267 281.568 222.094 283.552 220.593 284.748C219.092 285.944 216.924 285.64 215.863 284.085ZM203.819 268.937C202.561 267.354 202.734 265.37 204.235 264.174C205.736 262.978 207.707 263.254 208.965 264.837C210.223 266.42 210.05 268.404 208.549 269.6C207.049 270.796 204.881 270.492 203.819 268.937ZM191.776 253.789C190.517 252.206 190.691 250.222 192.191 249.026C193.692 247.83 195.663 248.106 196.921 249.689C198.18 251.272 198.006 253.256 196.506 254.452C195.005 255.648 192.837 255.344 191.776 253.789ZM179.535 238.613C178.277 237.031 178.45 235.046 179.951 233.85C181.451 232.654 183.422 232.931 184.68 234.513C185.939 236.096 185.766 238.081 184.265 239.276C182.961 240.5 180.793 240.196 179.535 238.613ZM167.491 223.465C166.233 221.883 166.406 219.898 167.907 218.702C169.408 217.506 171.378 217.783 172.637 219.365C173.895 220.948 173.722 222.933 172.221 224.128C170.917 225.352 168.749 225.048 167.491 223.465ZM155.447 208.317C154.189 206.735 154.362 204.75 155.863 203.554C157.364 202.358 159.335 202.635 160.593 204.217C161.851 205.8 161.678 207.784 160.177 208.98C158.874 210.204 156.706 209.9 155.447 208.317ZM230.013 272.81C228.755 271.227 228.928 269.243 230.429 268.047C231.93 266.851 233.901 267.127 235.159 268.71C236.417 270.293 236.244 272.277 234.743 273.473C233.457 274.498 231.289 274.194 230.013 272.81ZM217.97 257.662C216.711 256.079 216.885 254.095 218.385 252.899C219.886 251.703 221.857 251.979 223.115 253.562C224.374 255.145 224.2 257.129 222.7 258.325C221.413 259.35 219.245 259.046 217.97 257.662ZM205.926 242.514C204.668 240.931 204.841 238.947 206.342 237.751C207.842 236.555 209.813 236.831 211.072 238.414C212.33 239.996 212.157 241.981 210.656 243.177C209.369 244.202 207.202 243.898 205.926 242.514ZM193.9 227.167C192.641 225.585 192.814 223.6 194.315 222.404C195.816 221.208 197.787 221.485 199.045 223.067C200.303 224.65 200.13 226.635 198.629 227.83C197.326 229.054 195.158 228.75 193.9 227.167ZM181.856 212.019C180.598 210.437 180.771 208.452 182.272 207.256C183.772 206.06 185.743 206.337 187.001 207.919C188.26 209.502 188.086 211.487 186.586 212.682C185.085 213.878 183.114 213.602 181.856 212.019ZM169.812 196.871C168.554 195.289 168.727 193.304 170.228 192.108C171.729 190.912 173.699 191.189 174.958 192.771C176.216 194.354 176.043 196.338 174.542 197.534C173.041 198.73 171.07 198.454 169.812 196.871ZM244.378 261.364C243.12 259.781 243.293 257.797 244.794 256.601C246.295 255.405 248.265 255.681 249.524 257.264C250.782 258.847 250.609 260.831 249.108 262.027C247.804 263.251 245.636 262.947 244.378 261.364ZM232.334 246.216C231.076 244.633 231.249 242.649 232.75 241.453C234.251 240.257 236.222 240.533 237.48 242.116C238.738 243.699 238.565 245.683 237.064 246.879C235.564 248.075 233.593 247.799 232.334 246.216ZM220.291 231.068C219.032 229.485 219.206 227.501 220.706 226.305C222.207 225.109 224.178 225.385 225.436 226.968C226.695 228.551 226.521 230.535 225.021 231.731C223.52 232.927 221.549 232.651 220.291 231.068ZM208.247 215.92C206.989 214.337 207.162 212.353 208.663 211.157C210.163 209.961 212.134 210.237 213.393 211.82C214.651 213.402 214.478 215.387 212.977 216.583C211.493 217.58 209.325 217.276 208.247 215.92ZM196.203 200.772C194.945 199.189 195.118 197.205 196.619 196.009C198.12 194.813 200.09 195.089 201.349 196.672C202.607 198.254 202.434 200.239 200.933 201.435C199.45 202.432 197.282 202.128 196.203 200.772ZM184.159 185.624C182.901 184.041 183.074 182.056 184.575 180.861C186.076 179.665 188.047 179.941 189.305 181.524C190.563 183.106 190.39 185.091 188.889 186.287C187.406 187.284 185.238 186.98 184.159 185.624ZM258.743 249.918C257.485 248.335 257.658 246.351 259.159 245.155C260.659 243.959 262.63 244.235 263.888 245.818C265.147 247.401 264.974 249.385 263.473 250.581C261.972 251.777 259.804 251.473 258.743 249.918ZM246.699 234.77C245.441 233.187 245.614 231.203 247.115 230.007C248.616 228.811 250.586 229.087 251.845 230.67C253.103 232.253 252.93 234.237 251.429 235.433C249.928 236.629 247.76 236.325 246.699 234.77ZM234.655 219.622C233.397 218.039 233.57 216.055 235.071 214.859C236.572 213.663 238.543 213.939 239.801 215.522C241.059 217.105 240.886 219.089 239.385 220.285C237.884 221.481 235.717 221.177 234.655 219.622ZM222.612 204.474C221.353 202.891 221.527 200.907 223.027 199.711C224.528 198.515 226.499 198.791 227.757 200.374C229.016 201.956 228.842 203.941 227.342 205.137C225.841 206.333 223.673 206.029 222.612 204.474ZM210.371 189.298C209.113 187.716 209.286 185.731 210.787 184.535C212.287 183.339 214.258 183.616 215.516 185.198C216.775 186.781 216.601 188.765 215.101 189.961C213.797 191.185 211.629 190.881 210.371 189.298ZM198.327 174.15C197.069 172.568 197.242 170.583 198.743 169.387C200.244 168.191 202.214 168.467 203.473 170.05C204.731 171.633 204.558 173.617 203.057 174.813C201.753 176.037 199.585 175.733 198.327 174.15Z" fill="#ED683C"/>
<path d="M170.819 557.303C265.893 610.281 404.143 603.972 505.145 537.682C507.552 536.103 509.592 534.028 511.181 531.627L557.694 461.335C593.174 412.891 627.673 266.406 570.528 191.471C514.607 118.14 394.159 123.139 296.384 207.684C292.242 211.266 286.963 213.388 281.493 213.136C241.247 211.282 199.335 199.429 124.812 266.406C45.0287 338.11 56.7138 493.721 170.819 557.303Z" fill="url(#paint0_linear)"/>
<defs>
<linearGradient id="paint0_linear" x1="513.369" y1="491.835" x2="143.276" y2="234.86" gradientUnits="userSpaceOnUse">
<stop stop-color="#E6653A"/>
<stop offset="1" stop-color="#FF8B02"/>
</linearGradient>
</defs>
</svg>
