<svg width="50" height="46" viewBox="0 0 50 46" fill="none" xmlns="http://www.w3.org/2000/svg">
<path d="M17.308 0.34375H5.76933C4.16655 0.34375 2.80447 0.939678 1.68245 2.1312C0.560957 3.32294 0 4.76994 0 6.47275V18.7303C0 20.433 0.560641 21.8798 1.68245 23.0713C2.80436 24.2627 4.16687 24.8589 5.76933 24.8589H12.5001C13.3011 24.8589 13.9824 25.1569 14.5433 25.7526C15.1043 26.348 15.3846 27.072 15.3846 27.9236V28.9445C15.3846 31.2004 14.6333 33.1257 13.131 34.7221C11.6286 36.3177 9.8159 37.1157 7.69216 37.1157H5.76933C5.24816 37.1157 4.7976 37.3185 4.41682 37.7225C4.03636 38.1266 3.84598 38.6056 3.84598 39.1589V43.2453C3.84598 43.7977 4.03636 44.2776 4.41682 44.6818C4.79792 45.0858 5.24805 45.2886 5.76933 45.2886H7.69227C9.7758 45.2886 11.764 44.857 13.6571 43.9954C15.5502 43.1337 17.1877 41.9683 18.57 40.4998C19.952 39.0312 21.0488 37.292 21.8601 35.2808C22.6712 33.2697 23.0769 31.1577 23.0769 28.9446V6.4723C23.0769 4.76949 22.5159 3.32261 21.3944 2.13109C20.2728 0.939566 18.9104 0.34375 17.308 0.34375Z" fill="#EEEEEE"/>
<path d="M48.3169 2.1312C47.1954 0.939678 45.8332 0.34375 44.2305 0.34375H32.6923C31.0895 0.34375 29.7274 0.939678 28.6058 2.1312C27.4843 3.32305 26.9236 4.76994 26.9236 6.47275V18.7303C26.9236 20.433 27.4843 21.8798 28.6058 23.0713C29.7274 24.2627 31.0896 24.8589 32.6923 24.8589H39.423C40.224 24.8589 40.9058 25.1569 41.4666 25.7526C42.027 26.3483 42.308 27.072 42.308 27.9236V28.9445C42.308 31.2004 41.5566 33.1257 40.054 34.7221C38.5518 36.3177 36.7395 37.1157 34.6155 37.1157H32.6923C32.1715 37.1157 31.7205 37.3185 31.3402 37.7225C30.9595 38.1266 30.7689 38.6056 30.7689 39.1589V43.2453C30.7689 43.7977 30.9595 44.2776 31.3402 44.6818C31.7204 45.0858 32.1714 45.2886 32.6923 45.2886H34.6155C36.6987 45.2886 38.6868 44.857 40.5802 43.9954C42.4729 43.1337 44.1102 41.9683 45.4926 40.4998C46.8749 39.0312 47.9724 37.2915 48.7831 35.2808C49.5941 33.2702 50 31.1577 50 28.9446V6.4723C49.9997 4.76949 49.4393 3.32261 48.3169 2.1312Z" fill="#EEEEEE"/>
</svg>
