<svg width="50" height="51" viewBox="0 0 50 51" fill="none" xmlns="http://www.w3.org/2000/svg">
<path d="M14.1416 35.9121C23.261 35.9121 28.2833 31.1755 28.2833 22.5746C28.2833 14.5219 15.3919 1.71876 14.8432 1.17863C14.6595 1.00971 14.4063 0.914062 14.1416 0.914062C13.8769 0.914062 13.6233 1.00971 13.4401 1.17863C12.8914 1.71876 0 14.5219 0 22.5746C0 31.1755 5.02231 35.9121 14.1416 35.9121ZM14.1416 3.0066C16.8406 5.80738 26.3977 16.1732 26.3977 22.5746C26.3977 27.8985 24.271 34.2449 14.1416 34.2449C4.01232 34.2449 1.88555 27.8985 1.88555 22.5746C1.88555 16.1732 11.4422 5.80738 14.1416 3.0066Z" fill="#ED683C"/>
<path d="M40.5393 37.577C45.9317 37.577 49.0243 34.3953 49.0243 28.8458C49.0243 23.635 41.547 16.4721 41.2294 16.1693C41.0471 16.0065 40.7985 15.9149 40.5393 15.9149C40.2801 15.9149 40.0316 16.0065 39.8493 16.1693C39.5316 16.4721 32.0543 23.635 32.0543 28.8458C32.0543 34.3953 35.1464 37.577 40.5393 37.577ZM40.5393 17.9957C42.3576 19.8664 47.1387 25.1382 47.1387 28.8458C47.1387 33.5332 44.9185 35.9098 40.5393 35.9098C36.1601 35.9098 33.9399 33.5332 33.9399 28.8458C33.9399 25.1382 38.7205 19.8664 40.5393 17.9957Z" fill="#ED683C"/>
<path d="M26.6336 34.5255C26.3933 34.7665 20.7413 40.4743 20.7413 44.247C20.7413 48.485 23.147 50.9158 27.3407 50.9158C31.5339 50.9158 33.9401 48.485 33.9401 44.247C33.9401 40.4743 28.2881 34.7665 28.0478 34.5255C27.8636 34.3537 27.6081 34.2565 27.3407 34.2565C27.0732 34.2565 26.8173 34.3537 26.6336 34.5255ZM27.3407 49.2486C24.2136 49.2486 22.6268 47.5655 22.6268 44.247C22.6268 41.9811 25.5767 38.2926 27.3407 36.371C29.1056 38.2885 32.0546 41.9778 32.0546 44.247C32.0546 47.5655 30.4678 49.2486 27.3407 49.2486Z" fill="#ED683C"/>
<path d="M12.1617 32.5743C12.193 32.5772 12.2243 32.5784 12.256 32.5784C12.7583 32.5784 13.1726 32.23 13.1979 31.7863C13.2227 31.3427 12.8503 30.9597 12.3504 30.9153C10.3811 30.8278 8.54799 30.0003 7.31291 28.6412C4.80544 25.7505 5.63589 21.0904 5.64326 21.044C5.71185 20.5975 5.36659 20.1836 4.8639 20.1095C4.36121 20.0358 3.88292 20.3285 3.78441 20.7705C3.74252 20.9907 2.80757 26.1771 5.81036 29.6482C7.35526 31.3834 9.668 32.449 12.1617 32.5743Z" fill="#ED683C"/>
<path d="M39.5966 34.2417C41.3362 34.2197 42.9948 33.588 44.2078 32.4853C45.2578 31.2911 45.6376 29.7399 45.2399 28.2689C45.1432 27.8244 44.6635 27.5293 44.1585 27.6038C43.6535 27.6787 43.3083 28.0959 43.381 28.544C43.6696 29.5282 43.4478 30.5755 42.7757 31.4006C41.9227 32.1341 40.7861 32.5537 39.5966 32.5745C39.0759 32.5745 38.6538 32.9477 38.6538 33.4081C38.6538 33.8684 39.0759 34.2417 39.5966 34.2417Z" fill="#ED683C"/>
<path d="M26.8189 46.0076C26.5247 45.9026 26.2978 45.6889 26.1974 45.4227C26.0976 45.1569 26.1344 44.8651 26.2987 44.6254C26.5312 44.2135 26.3425 43.7124 25.8761 43.5069C25.4103 43.3009 24.8441 43.4682 24.6111 43.8801C24.2235 44.5167 24.1503 45.2668 24.4086 45.9527C24.6673 46.6385 25.2344 47.1998 25.976 47.5039C26.4423 47.7098 27.0086 47.5425 27.2415 47.1302C27.474 46.7183 27.2852 46.2177 26.8189 46.0117V46.0076Z" fill="#ED683C"/>
</svg>
