<svg width="45" height="50" viewBox="0 0 45 50" fill="none" xmlns="http://www.w3.org/2000/svg">
<path d="M39.947 5.95361C39.6311 5.71465 39.2626 5.58838 38.8813 5.58838C38.2531 5.58838 37.6671 5.93262 37.3139 6.50918L36.9997 7.02178L36.4247 6.60908C36.5267 6.24004 36.5488 5.84687 36.4848 5.45615C36.3796 4.81416 36.0554 4.25615 35.5726 3.88496C35.2032 3.60107 34.7711 3.45098 34.3231 3.45098C33.7827 3.45098 33.2681 3.67139 32.8711 4.05869L32.32 3.66328L32.5481 3.29131C33.1362 2.33184 32.9122 1.01953 32.0484 0.36543C31.7324 0.126367 31.3638 0 30.9828 0C30.3546 0 29.7685 0.344238 29.4153 0.920801L28.0714 3.11396C27.483 4.07344 27.7071 5.38584 28.5709 6.03994C28.8868 6.27891 29.2553 6.40518 29.6366 6.40518C30.2649 6.40518 30.8509 6.06094 31.2041 5.48428L31.5181 4.97207L32.005 5.32148L25.7746 15.3282H19.2196L12.991 5.32432L13.482 4.97207L13.7959 5.48428C14.1492 6.06084 14.7353 6.40508 15.3635 6.40518H15.3636C15.7448 6.40518 16.1133 6.27881 16.4294 6.03975C17.2931 5.38594 17.5171 4.07344 16.9289 3.11416L15.5847 0.920801C15.2313 0.344238 14.6454 0 14.0171 0C13.6359 0 13.2673 0.126367 12.9512 0.36543C12.0877 1.01914 11.8635 2.33164 12.4517 3.29102L12.6798 3.66309L12.1255 4.06084C11.7282 3.67207 11.2125 3.45068 10.6709 3.45068C10.2227 3.45068 9.79074 3.60088 9.42142 3.88477C8.61476 4.50479 8.29747 5.62129 8.5709 6.61191L8.00005 7.02158L7.68593 6.50898C7.3327 5.93242 6.74664 5.58818 6.11849 5.58818C5.73722 5.58818 5.36869 5.71455 5.05264 5.95361C4.18903 6.60732 3.96491 7.91982 4.55307 8.8793L5.89718 11.0726C6.2505 11.6491 6.83656 11.9934 7.4648 11.9934C7.84598 11.9934 8.21433 11.8672 8.53056 11.628C9.39426 10.9742 9.61829 9.66172 9.03004 8.70244L8.80197 8.33037L9.29538 7.97627L17.2091 20.6866C17.2887 20.8145 17.378 20.9324 17.4766 21.04V49.2084C17.4766 49.6456 17.7955 49.9999 18.1889 49.9999H26.805C27.1985 49.9999 27.5174 49.6456 27.5174 49.2084V21.0401C27.616 20.9325 27.7055 20.8144 27.785 20.6865L35.7005 7.97354L36.1977 8.33047L35.9697 8.70244C35.3814 9.66191 35.6054 10.9743 36.4693 11.6284C36.7852 11.8674 37.1537 11.9936 37.5349 11.9936C38.1631 11.9936 38.7492 11.6494 39.1025 11.0729L40.4466 8.87949C41.0348 7.92002 40.8108 6.60752 39.947 5.95361ZM31.3704 2.4001L30.0263 4.59336C29.9388 4.73652 29.7929 4.82207 29.6365 4.82207C29.5425 4.82207 29.4513 4.79063 29.3729 4.73145C29.1584 4.56914 29.1028 4.24336 29.2488 4.00498L30.5929 1.81162C30.6807 1.66855 30.8263 1.58301 30.9827 1.58301C31.0769 1.58301 31.1681 1.61445 31.2464 1.67363C31.4609 1.83594 31.5165 2.16172 31.3704 2.4001ZM13.753 1.67383C13.8317 1.61445 13.9229 1.58301 14.017 1.58301C14.1734 1.58301 14.3192 1.66846 14.4068 1.81162L15.751 4.00518C15.8969 4.24336 15.8413 4.56914 15.627 4.73125C15.5485 4.79063 15.4573 4.82207 15.3633 4.82207C15.2067 4.82207 15.0609 4.73652 14.9733 4.59336L13.6294 2.4C13.4833 2.16172 13.5389 1.83594 13.753 1.67383ZM7.72873 10.3196C7.65025 10.379 7.55902 10.4104 7.46497 10.4104C7.30853 10.4104 7.16263 10.3249 7.07492 10.1816L5.7308 7.98828C5.58482 7.7501 5.64045 7.42422 5.85473 7.26211C5.9333 7.20273 6.02453 7.17129 6.11858 7.17129C6.27493 7.17129 6.42075 7.25674 6.50837 7.3999L7.85257 9.59355C7.99865 9.83174 7.94292 10.1575 7.72873 10.3196ZM34.9585 6.38311L26.6135 19.7857C26.5579 19.8751 26.489 19.9507 26.4087 20.0104C26.2113 20.1573 26.0928 20.404 26.0928 20.6681V48.4171H23.0557V33.9658C23.0557 33.5286 22.7368 33.1743 22.3434 33.1743C21.9499 33.1743 21.631 33.5286 21.631 33.9658V48.417H18.9014V20.6682C18.9014 20.4041 18.7829 20.1575 18.5856 20.0107C18.5052 19.9509 18.4362 19.8752 18.3807 19.7861L10.036 6.38311C9.7932 5.99316 9.88118 5.45645 10.2321 5.18662C10.3622 5.08672 10.514 5.03379 10.671 5.03379C10.9258 5.03379 11.1641 5.17236 11.3087 5.40459L18.2605 16.5701C18.3935 16.7838 18.6125 16.9113 18.8463 16.9113H26.1481C26.3819 16.9113 26.601 16.7839 26.7339 16.5701L33.6856 5.40469C33.8302 5.17256 34.0686 5.03389 34.3233 5.03389C34.4804 5.03389 34.6321 5.08672 34.7623 5.18672C35.1133 5.45645 35.2012 5.99316 34.9585 6.38311ZM39.2692 7.98838L37.925 10.1818C37.8372 10.3249 37.6915 10.4104 37.535 10.4104C37.4409 10.4104 37.3497 10.3791 37.2714 10.3199C37.057 10.1576 37.0013 9.83184 37.1474 9.59346L38.4915 7.4C38.5793 7.25693 38.7249 7.17139 38.8814 7.17139C38.9755 7.17139 39.0667 7.20283 39.1451 7.26201C39.3595 7.42441 39.4151 7.7502 39.2692 7.98838Z" fill="#ED683C"/>
<path d="M22.3434 13.9046C24.8574 13.9046 26.9025 11.632 26.9025 8.83864C26.9025 6.04528 24.8573 3.77292 22.3434 3.77292C19.8292 3.77292 17.784 6.04538 17.784 8.83864C17.784 11.632 19.8292 13.9046 22.3434 13.9046ZM22.3434 5.35583C24.0717 5.35583 25.4779 6.91823 25.4779 8.83864C25.4779 10.7591 24.0717 12.3216 22.3434 12.3216C20.6149 12.3216 19.2086 10.7591 19.2086 8.83864C19.2086 6.91823 20.6149 5.35583 22.3434 5.35583Z" fill="#ED683C"/>
</svg>
