<svg width="50" height="50" viewBox="0 0 50 50" fill="none" xmlns="http://www.w3.org/2000/svg">
<g clip-path="url(#clip0)">
<path d="M37.8335 5.54209L25.3334 0.0704252C25.1209 -0.0223358 24.8793 -0.0223358 24.6668 0.0704252L12.1668 5.54209C11.8632 5.67457 11.6669 5.97423 11.6668 6.30543V19.3888C11.6713 22.329 13.0842 25.0892 15.4668 26.8121L24.1059 33.0429C24.6395 33.4291 25.3607 33.4291 25.8943 33.0429L34.5334 26.8129C36.916 25.09 38.3289 22.3299 38.3334 19.3896V6.30543C38.3333 5.97423 38.137 5.67457 37.8335 5.54209ZM36.6668 19.3896C36.663 21.7945 35.5072 24.052 33.5584 25.4613L25.0001 31.6338L16.4418 25.4613C14.493 24.052 13.3373 21.7945 13.3334 19.3896V6.85043L25.0001 1.74376L36.6668 6.85043V19.3896Z" fill="#ED683C"/>
<path d="M24.6668 3.7076L15.5001 7.72093C15.1966 7.85341 15.0003 8.15307 15.0001 8.48427V19.3884C15.0027 21.2581 15.9014 23.0133 17.4168 24.1084L24.5126 29.2268C24.8037 29.4367 25.1965 29.4367 25.4876 29.2268L32.5835 24.1084C34.0989 23.0133 34.9976 21.2581 35.0001 19.3884V8.48427C35 8.15307 34.8037 7.85341 34.5001 7.72093L25.3335 3.7076C25.1209 3.61484 24.8793 3.61484 24.6668 3.7076ZM33.3335 9.02844V19.3884C33.3309 20.7226 32.6896 21.9749 31.6085 22.7568L25.0001 27.5234L18.3918 22.7568C17.3107 21.9749 16.6693 20.7226 16.6668 19.3884V9.02844L25.0001 5.38094L33.3335 9.02844Z" fill="#ED683C"/>
<path d="M6.90395 27.6666L5.10145 23.4549C4.71813 22.5866 3.9007 21.9887 2.95707 21.8866C2.01344 21.7844 1.08697 22.1934 0.526652 22.9595C-0.0336633 23.7256 -0.142699 24.7324 0.240617 25.6007L3.50645 32.7849C3.94704 33.7575 4.55997 34.6423 5.31562 35.3966L10.4515 40.5332C10.1622 40.8398 10.0007 41.2451 9.99978 41.6666V48.3332C9.99978 49.2537 10.746 49.9999 11.6665 49.9999H20.8331C21.7536 49.9999 22.4998 49.2537 22.4998 48.3332V41.6666C22.4998 40.7461 21.7536 39.9999 20.8331 39.9999V38.4491C20.8587 36.4755 20.2148 34.5514 19.0065 32.9907C18.298 32.059 17.3326 31.3548 16.229 30.9649C14.4738 30.2275 12.8597 29.1916 11.4581 27.9032C10.1572 26.8318 8.30897 26.7357 6.90395 27.6666ZM20.8331 48.3332H11.6665V41.6666H20.8331V48.3332ZM17.7056 34.0316C18.677 35.2971 19.1918 36.8539 19.1665 38.4491V39.9999H12.2756L6.49395 34.2182C5.8799 33.6051 5.38162 32.886 5.02312 32.0957L1.75728 24.9116C1.61791 24.6049 1.64385 24.2485 1.82615 23.9653C2.00845 23.6821 2.32213 23.5109 2.65895 23.5107C3.05532 23.5104 3.41354 23.7469 3.56895 24.1116L5.43312 28.4591C5.92814 29.619 6.64165 30.6729 7.53478 31.5632L11.3415 35.3707C11.5507 35.5874 11.8605 35.6742 12.1519 35.598C12.4432 35.5217 12.6708 35.2942 12.747 35.0028C12.8233 34.7115 12.7364 34.4016 12.5198 34.1924L8.71312 30.3849C8.33034 30.003 7.98617 29.5844 7.68562 29.1349C8.4859 28.5191 9.60548 28.5378 10.3848 29.1799C11.9426 30.6095 13.743 31.7496 15.7015 32.5466C16.4994 32.8367 17.1957 33.3527 17.7056 34.0316Z" fill="#ED683C"/>
<path d="M18.3334 44.1676H17.5001C17.0398 44.1676 16.6667 44.5407 16.6667 45.0009C16.6667 45.4612 17.0398 45.8343 17.5001 45.8343H18.3334C18.7936 45.8343 19.1667 45.4612 19.1667 45.0009C19.1667 44.5407 18.7936 44.1676 18.3334 44.1676Z" fill="#ED683C"/>
<path d="M46.4935 32.7869L49.7593 25.6028C50.1609 24.7315 50.0615 23.7115 49.4994 22.9341C48.9373 22.1567 47.9997 21.7427 47.0466 21.8511C46.0934 21.9594 45.2726 22.5732 44.8993 23.4569L43.101 27.6528C41.6911 26.7265 39.842 26.8279 38.5418 27.9028C37.1402 29.1911 35.5261 30.227 33.771 30.9644C32.6674 31.3543 31.7019 32.0585 30.9935 32.9903C29.7846 34.5516 29.1407 36.4766 29.1668 38.4511V40.0019C28.2463 40.0019 27.5001 40.7481 27.5001 41.6686V48.3353C27.5001 49.2557 28.2463 50.0019 29.1668 50.0019H38.3335C39.2539 50.0019 40.0001 49.2557 40.0001 48.3353V41.6686C39.9992 41.2471 39.8377 40.8418 39.5485 40.5353L44.6843 35.3986C45.44 34.6443 46.0529 33.7595 46.4935 32.7869ZM38.3335 48.3353H29.1668V41.6686H38.3335V48.3353ZM37.7243 40.0019H30.8335V38.4511C30.8083 36.8562 31.3231 35.2997 32.2943 34.0344C32.8031 33.356 33.4978 32.8398 34.2943 32.5486C36.2531 31.7519 38.0539 30.6118 39.6118 29.1819C40.3903 28.5349 41.513 28.5131 42.316 29.1294C42.0145 29.5822 41.6687 30.0037 41.2835 30.3878L37.4768 34.1953C37.161 34.5222 37.1655 35.042 37.487 35.3634C37.8084 35.6849 38.3282 35.6894 38.6551 35.3736L42.4618 31.5661C43.3549 30.6757 44.0685 29.6218 44.5635 28.4619L46.4277 24.1136C46.5835 23.7494 46.9415 23.5134 47.3377 23.5136C47.6745 23.5137 47.9882 23.6849 48.1705 23.9682C48.3528 24.2514 48.3787 24.6078 48.2393 24.9144L44.9735 32.0986C44.615 32.8889 44.1167 33.6079 43.5026 34.2211L37.7243 40.0019Z" fill="#ED683C"/>
<path d="M32.5 44.1676H31.6667C31.2065 44.1676 30.8334 44.5407 30.8334 45.0009C30.8334 45.4612 31.2065 45.8343 31.6667 45.8343H32.5C32.9603 45.8343 33.3334 45.4612 33.3334 45.0009C33.3334 44.5407 32.9603 44.1676 32.5 44.1676Z" fill="#ED683C"/>
<path d="M20.5 17.667C20.1318 17.3909 19.6095 17.4655 19.3334 17.8337C19.0572 18.2019 19.1318 18.7242 19.5 19.0004L22.8334 21.5004C22.9776 21.6086 23.1531 21.667 23.3334 21.667C23.3806 21.6669 23.4276 21.663 23.4742 21.6554C23.6999 21.6167 23.8997 21.4868 24.0267 21.2962L30.6934 11.2962C30.8586 11.0485 30.8791 10.7315 30.7472 10.4645C30.6153 10.1976 30.351 10.0213 30.0539 10.002C29.7568 9.98278 29.4719 10.1235 29.3067 10.3712L23.1284 19.6387L20.5 17.667Z" fill="#ED683C"/>
</g>
<defs>
<clipPath id="clip0">
<rect width="50" height="50" fill="white"/>
</clipPath>
</defs>
</svg>
