<svg width="45" height="50" viewBox="0 0 45 50" fill="none" xmlns="http://www.w3.org/2000/svg">
<g clip-path="url(#clip0)">
<path d="M43.6838 24.1641C43.2694 23.7007 42.7764 23.3332 42.2333 23.083C41.6901 22.8328 41.1077 22.7047 40.5198 22.7063H34.2701L34.2732 16.6282C34.2689 14.6907 33.7412 12.7993 32.7584 11.1989C31.7757 9.59843 30.3831 8.36268 28.7611 7.6516C27.6385 7.16019 26.2242 6.76918 25.0194 7.0559C25.2809 5.98409 25.2114 4.84579 24.8219 3.82309C24.4324 2.80039 23.7454 1.95239 22.8709 1.41474C21.9964 0.877098 20.9849 0.680877 19.9981 0.857472C19.0114 1.03407 18.1065 1.57327 17.4282 2.38882C16.7498 3.20438 16.3372 4.24916 16.2565 5.35603C16.1757 6.4629 16.4313 7.56789 16.9825 8.49424C17.5337 9.4206 18.3486 10.1148 19.2968 10.4657C20.2451 10.8167 21.2718 10.8042 22.2129 10.4301L19.6816 15.2157L14.0731 18.2891C13.7039 18.4946 13.379 18.7862 13.1206 19.1441C12.8622 19.5019 12.6764 19.9175 12.5758 20.3625H11.267C10.7655 20.3628 10.2696 20.4799 9.81137 20.7063C9.35314 20.9327 8.94275 21.2634 8.6067 21.677C8.37173 20.9811 7.99849 20.3531 7.51478 19.8397C7.03107 19.3263 6.44935 18.9408 5.81295 18.7118C5.17655 18.4829 4.50186 18.4164 3.83913 18.5174C3.1764 18.6183 2.54271 18.8841 1.98525 19.2949C1.42779 19.7057 0.960919 20.251 0.619416 20.8901C0.277913 21.5292 0.0705741 22.2457 0.0128399 22.9861C-0.0448942 23.7266 0.0484643 24.472 0.285963 25.1669C0.523461 25.8617 0.89898 26.488 1.38455 26.9993H0.611115C0.447944 26.9993 0.291457 27.0713 0.176078 27.1995C0.0606993 27.3277 -0.00411987 27.5015 -0.00411987 27.6828V33.5188C-0.00411987 33.7001 0.0606993 33.874 0.176078 34.0022C0.291457 34.1304 0.447944 34.2024 0.611115 34.2024H3.07205V48.4875C3.07205 48.6688 3.13687 48.8427 3.25225 48.9709C3.36763 49.0991 3.52412 49.1711 3.68729 49.1711H7.90604C8.06921 49.1711 8.22569 49.0991 8.34107 48.9709C8.45645 48.8427 8.52127 48.6688 8.52127 48.4875V40.4692C8.56486 40.4719 8.60881 40.477 8.65205 40.477C9.13514 40.477 9.60786 40.3213 10.0129 40.0287C10.4179 39.7361 10.7377 39.3192 10.9337 38.8286L12.7453 34.2043H21.4549L20.5475 35.5356C20.0511 36.1012 19.7727 36.8596 19.7716 37.6496V46.0481C19.765 46.8463 20.0357 47.6166 20.5274 48.1987C21.019 48.7808 21.6938 49.1298 22.4112 49.1731H22.4941C23.217 49.1726 23.9101 48.8534 24.4213 48.2856C24.9325 47.7177 25.2201 46.9477 25.2208 46.1446V38.909L27.1819 36.75L26.8521 38.6332C26.798 38.9526 26.7887 39.2794 26.8247 39.602L27.8337 46.5086C27.914 47.2426 28.2331 47.9187 28.731 48.4093C29.2288 48.8999 29.871 49.1713 30.5365 49.1723C30.6469 49.1727 30.7572 49.1658 30.8669 49.1516C31.5838 49.0537 32.2365 48.6439 32.6818 48.0121C33.1271 47.3803 33.3287 46.578 33.2424 45.7813C33.2424 45.7719 33.24 45.7625 33.2386 45.7528L32.2858 39.3075L33.1806 34.2024H36.4705V48.4875C36.4705 48.6688 36.5353 48.8427 36.6507 48.9709C36.7661 49.0991 36.9226 49.1711 37.0857 49.1711H41.3045C41.4676 49.1711 41.6241 49.0991 41.7395 48.9709C41.8549 48.8427 41.9197 48.6688 41.9197 48.4875V34.2024H44.3806C44.5438 34.2024 44.7003 34.1304 44.8157 34.0022C44.9311 33.874 44.9959 33.7001 44.9959 33.5188V27.6828C44.9974 27.0291 44.8822 26.3815 44.657 25.7775C44.4318 25.1735 44.101 24.6251 43.6838 24.1641ZM20.7258 9.35199C20.0888 9.35207 19.4662 9.14228 18.9366 8.74916C18.4069 8.35603 17.9941 7.79724 17.7503 7.14342C17.5065 6.48961 17.4427 5.77016 17.5669 5.07605C17.6912 4.38193 17.9978 3.74434 18.4482 3.24389C18.8985 2.74344 19.4723 2.40262 20.097 2.26452C20.7217 2.12643 21.3692 2.19726 21.9577 2.46807C22.5461 2.73888 23.0491 3.1975 23.403 3.78592C23.7568 4.37435 23.9457 5.06616 23.9457 5.77386C23.9448 6.72246 23.6053 7.63191 23.0016 8.3027C22.398 8.9735 21.5795 9.35085 20.7258 9.35199ZM14.6188 19.5145L20.3907 16.3504C20.4983 16.2914 20.588 16.1986 20.6488 16.0836L24.305 9.16957C24.4234 8.94735 24.5866 8.75879 24.7819 8.61878C24.9771 8.47878 25.199 8.39119 25.43 8.36293C25.4841 8.35452 25.5386 8.35086 25.5931 8.35199C27.5683 8.35406 29.462 9.22674 30.8586 10.7785C32.2553 12.3303 33.0408 14.4344 33.0428 16.6289L33.0396 22.7075H32.9872C31.6844 21.4176 30.0495 20.6156 28.3139 20.4149L28.6415 18.027C28.7747 17.0463 28.6145 16.0442 28.1857 15.1744C27.757 14.3046 27.0832 13.6151 26.2678 13.2118C26.1298 13.1436 25.974 13.1343 25.8302 13.1856C25.6864 13.2369 25.5646 13.3452 25.488 13.4899L22.9033 18.3727C22.7557 18.6516 22.5376 18.8761 22.2762 19.0184L15.8601 22.534C15.6809 22.6322 15.4857 22.6894 15.2862 22.7022C15.0866 22.715 14.8868 22.6832 14.6986 22.6087C14.5103 22.5342 14.3374 22.4184 14.1901 22.2683C14.0428 22.1182 13.9242 21.9368 13.8411 21.7348C13.7533 21.5231 13.7121 21.2912 13.7209 21.0582C13.7306 20.7347 13.8192 20.4201 13.9774 20.1482C14.1355 19.8762 14.3572 19.6572 14.6188 19.5145ZM27.4248 17.8196L27.076 20.3625H22.6056L22.8207 20.2453C23.2983 19.9845 23.6963 19.5733 23.9651 19.0629L26.2439 14.7563C26.6777 15.0943 27.0181 15.56 27.2267 16.1012C27.4353 16.6424 27.5039 17.2375 27.4248 17.8196ZM1.22635 23.4196C1.22635 22.7119 1.41523 22.0201 1.76909 21.4316C2.12296 20.8432 2.62593 20.3846 3.21438 20.1138C3.80284 19.843 4.45035 19.7721 5.07504 19.9102C5.69973 20.0483 6.27354 20.3891 6.72389 20.8896C7.17424 21.39 7.48092 22.0276 7.60514 22.7217C7.72936 23.4159 7.66553 24.1353 7.42174 24.7891C7.17795 25.4429 6.76514 26.0017 6.23552 26.3949C5.70589 26.788 5.08324 26.9978 4.44631 26.9977C3.59255 26.9967 2.77403 26.6193 2.17036 25.9485C1.56669 25.2777 1.22719 24.3682 1.22635 23.4196ZM7.66662 26.8235V26.9993H7.50842C7.56256 26.9427 7.61541 26.8842 7.66697 26.8235H7.66662ZM3.67533 32.8352H1.22635V28.3664H7.66697V32.8336L3.67533 32.8352ZM7.2908 34.3332L6.41963 36.5543C6.25193 36.9715 6.176 37.4271 6.19813 37.8833C6.22026 38.3396 6.33981 38.7834 6.5469 39.1782C6.73273 39.5223 6.9874 39.8142 7.29115 40.0313V47.8047H4.30287V34.2024H7.29115L7.2908 34.3332ZM12.3428 26.9993C12.1796 26.9993 12.0231 27.0713 11.9077 27.1995C11.7923 27.3277 11.7275 27.5015 11.7275 27.6828V33.3762L9.80869 38.2793C9.6926 38.5764 9.48657 38.8189 9.22635 38.9647C8.96613 39.1106 8.66815 39.1506 8.38416 39.0778C8.20146 39.0273 8.03121 38.9321 7.8858 38.7992C7.7404 38.6663 7.62351 38.4991 7.54365 38.3096C7.4638 38.1202 7.42298 37.9133 7.42418 37.7042C7.42539 37.495 7.46858 37.2887 7.55061 37.1004L8.84752 33.7918V33.7891C8.86382 33.7474 8.87631 33.7039 8.88479 33.6594C8.8934 33.6135 8.89776 33.5668 8.89779 33.52V24.3625C8.89845 23.6645 9.1483 22.9952 9.59253 22.5017C10.0368 22.0081 10.6391 21.7304 11.2673 21.7297H12.5491C12.5887 21.9268 12.6468 22.1188 12.7224 22.3024C12.8727 22.6717 13.0887 23.0035 13.3574 23.2775C13.6262 23.5516 13.9421 23.7623 14.2862 23.8969C14.6299 24.0315 14.9942 24.0888 15.358 24.0654C15.7217 24.042 16.0777 23.9384 16.4051 23.7606L20.1119 21.7293H27.4529C27.4881 21.7293 27.5264 21.7293 27.5935 21.7328C29.3572 21.7711 31.0446 22.5388 32.3259 23.886C32.4399 24.0059 32.5908 24.0728 32.7478 24.0731H40.5205C41.2746 24.0745 42.0049 24.3671 42.5863 24.9008C43.1677 25.4345 43.564 26.1762 43.7074 26.9989L12.3428 26.9993ZM27.5978 34.3649L24.1711 38.1387C24.1133 38.2022 24.0674 38.2778 24.0361 38.3612C24.0048 38.4445 23.9886 38.5339 23.9886 38.6243V46.1438C23.9882 46.3662 23.9477 46.5864 23.8695 46.7911C23.7912 46.9959 23.6768 47.1811 23.5331 47.3359C23.3893 47.4907 23.219 47.6119 23.0324 47.6924C22.8457 47.7729 22.6464 47.8109 22.4463 47.8043C22.0481 47.774 21.6758 47.5745 21.4065 47.2472C21.1373 46.9198 20.9918 46.4899 21.0003 46.0465V37.6481C21.0008 37.429 21.0404 37.2121 21.1168 37.0101C21.1932 36.808 21.3049 36.6249 21.4454 36.4711C21.4668 36.4477 21.4866 36.4227 21.5048 36.3961L23.0004 34.202H27.6276L27.5978 34.3649ZM30.7186 47.793C30.5213 47.8208 30.3209 47.8044 30.1295 47.7447C29.938 47.685 29.7592 47.5833 29.6037 47.4455C29.4481 47.3078 29.3191 47.1368 29.224 46.9426C29.129 46.7485 29.07 46.5352 29.0504 46.3153L28.0435 39.4145C28.0254 39.2403 28.031 39.0641 28.0604 38.8918L28.7344 35.0395L29.4962 34.2024H31.928L31.0571 39.1653C31.043 39.2449 31.042 39.3266 31.054 39.4067L32.0222 45.9579C32.0663 46.3926 31.9543 46.8292 31.7105 47.1727C31.4667 47.5163 31.1108 47.7392 30.72 47.793H30.7186ZM40.6878 47.8039H37.6996V34.2024H40.6878V47.8039ZM43.764 32.8352H12.958V28.3664H43.7654L43.764 32.8352Z" fill="#ED683C"/>
</g>
<defs>
<clipPath id="clip0">
<rect width="45" height="50" fill="white"/>
</clipPath>
</defs>
</svg>
