<svg width="50" height="50" viewBox="0 0 50 50" fill="none" xmlns="http://www.w3.org/2000/svg">
<g clip-path="url(#clip0)">
<path d="M45.7012 44.5083L39.0817 28.5277C38.9131 28.1206 38.4464 27.9271 38.0393 28.0959C37.6321 28.2646 37.4387 28.7313 37.6075 29.1383L43.5916 43.5852L38.1332 42.0036C37.7749 41.8997 37.3922 42.0582 37.2123 42.3851L34.471 47.3631L28.05 31.8614C35.461 30.4322 41.0763 23.8983 41.0763 16.0765C41.0764 7.21192 33.8646 0 25 0C16.1354 0 8.92351 7.21192 8.92351 16.0765C8.92351 19.667 10.1069 22.9862 12.1039 25.6651L4.29883 44.5083C4.18149 44.7917 4.23692 45.1172 4.44149 45.3457C4.64596 45.5743 4.96351 45.6653 5.25809 45.58L11.6978 43.7139L14.9318 49.587C15.0727 49.8427 15.3411 50 15.6305 50C15.6452 50 15.66 49.9996 15.6748 49.9988C15.9811 49.9818 16.2504 49.7909 16.3679 49.5074L22.5526 34.5763C22.7212 34.1692 22.5279 33.7024 22.1207 33.5338C21.7136 33.3652 21.2469 33.5585 21.0783 33.9656L15.5288 47.3631L12.7877 42.3851C12.6077 42.0582 12.2248 41.8997 11.8667 42.0036L6.40841 43.5852L13.2592 27.046C16.1951 30.1864 20.3719 32.1529 25 32.1529C25.4778 32.1529 25.9503 32.1306 26.4176 32.0897L33.6322 49.5074C33.7496 49.7909 34.019 49.9818 34.3252 49.9987C34.3401 49.9996 34.3548 50 34.3696 50C34.659 50 34.9274 49.8427 35.0682 49.587L38.3023 43.7139L44.742 45.58C45.0368 45.6654 45.354 45.5743 45.5586 45.3457C45.7632 45.1172 45.8185 44.7917 45.7012 44.5083ZM10.5193 16.0765C10.5193 8.09181 17.0153 1.59574 25 1.59574C32.9847 1.59574 39.4806 8.09181 39.4806 16.0765C39.4806 24.0612 32.9847 30.5571 25 30.5571C17.0153 30.5571 10.5193 24.0612 10.5193 16.0765Z" fill="#ED683C"/>
<path d="M34.2191 13.081C34.1273 12.7982 33.8856 12.5899 33.5923 12.5406L28.2234 11.6397L25.7076 6.81213C25.5701 6.54841 25.2975 6.38298 25 6.38298C24.7027 6.38298 24.4299 6.54841 24.2925 6.81213L21.7765 11.6397L16.4078 12.5406C16.1145 12.5898 15.8729 12.7981 15.781 13.081C15.6891 13.3638 15.7621 13.6743 15.9705 13.8865L19.7843 17.7711L18.9822 23.1555C18.9383 23.4497 19.0617 23.7437 19.3024 23.9186C19.5428 24.0933 19.8608 24.1198 20.127 23.9873L25 21.5605L29.873 23.9873C29.9857 24.0434 30.1074 24.0711 30.2286 24.0711C30.3943 24.0711 30.5589 24.0196 30.6977 23.9187C30.9383 23.7438 31.0617 23.4498 31.0179 23.1556L30.2159 17.7712L34.0297 13.8865C34.238 13.6743 34.311 13.3638 34.2191 13.081ZM28.7988 16.9367C28.6234 17.1153 28.5421 17.3657 28.579 17.6132L29.2141 21.8764L25.3558 19.955C25.2436 19.8993 25.1219 19.8713 25 19.8713C24.8782 19.8713 24.7563 19.8992 24.6444 19.955L20.7861 21.8764L21.4212 17.6132C21.4581 17.3657 21.3767 17.1152 21.2014 16.9367L18.1817 13.861L22.4325 13.1476C22.6793 13.1062 22.8924 12.9514 23.008 12.7295L25 8.90724L26.9921 12.7296C27.1078 12.9515 27.3208 13.1063 27.5676 13.1477L31.8184 13.8611L28.7988 16.9367Z" fill="#ED683C"/>
<path d="M37.0864 16.8813C36.6495 16.8229 36.2484 17.1305 36.1907 17.5674C35.4505 23.1533 30.6396 27.3657 25 27.3657C18.7751 27.3657 13.7108 22.3015 13.7108 16.0765C13.7108 9.85148 18.7751 4.78723 25 4.78723C30.6397 4.78723 35.4505 8.99957 36.1907 14.5855C36.2484 15.0224 36.6502 15.3303 37.0864 15.2717C37.5231 15.2138 37.8304 14.8128 37.7725 14.376C36.9278 7.99978 31.4368 3.19148 25 3.19148C17.8952 3.19148 12.115 8.97159 12.115 16.0765C12.115 23.1814 17.8952 28.9614 25 28.9614C31.4368 28.9614 36.9278 24.1531 37.7726 17.7769C37.8304 17.3402 37.5232 16.9391 37.0864 16.8813Z" fill="#ED683C"/>
</g>
<defs>
<clipPath id="clip0">
<rect width="50" height="50" fill="white"/>
</clipPath>
</defs>
</svg>
